<svg width="101" height="252" viewBox="0 0 101 252" fill="none" xmlns="http://www.w3.org/2000/svg">
<path d="M35.57 122.19C34.72 122.86 35.39 122.48 35.17 122.58L35.16 122.57L35.13 122.54L35.06 122.48L34.91 122.36C34.81 122.28 34.71 122.21 34.6 122.14C34.39 122 34.17 121.88 33.94 121.77C33.49 121.55 33.01 121.39 32.53 121.29C31.57 121.08 30.58 121.1 29.64 121.32C27.75 121.76 26.05 122.88 24.55 124.21C23.03 125.53 21.68 127.08 20.44 128.73C19.18 130.36 18.03 132.1 16.95 133.88C15.88 135.66 14.85 137.63 13.82 139.51C12.77 141.4 11.58 143.2 10.22 144.88C8.87 146.57 7.42 148.2 5.86 149.74C5.09 150.51 4.24 151.25 3.44 151.97C2.61 152.63 1.89 153.39 1 154.16L0.5 153.89C0.62 152.76 0.880003 151.61 1.3 150.51C1.71 149.45 2.12 148.44 2.57 147.45C3.47 145.47 4.46 143.55 5.52 141.68C6.58 139.81 7.8 138.05 9.15 136.37C10.52 134.68 11.86 133.06 13.21 131.29C15.94 127.8 18.98 124.43 22.87 121.93C24.82 120.73 27.03 119.73 29.42 119.6C30.61 119.53 31.82 119.71 32.91 120.16C33.45 120.39 33.96 120.68 34.42 121.03C34.65 121.2 34.87 121.39 35.07 121.59C35.17 121.69 35.27 121.79 35.37 121.9L35.51 122.07L35.58 122.16L35.61 122.21L35.63 122.24L35.64 122.26C35.43 122.37 36.11 122 35.26 122.68L35.57 122.19Z" fill="#050504"/>
<path d="M67.78 113.15C70.45 107.4 73.31 101.8 76.2 96.2302L84.88 79.5502C87.75 73.9902 90.64 68.4502 93.32 62.8202C94.66 60.0002 95.98 57.1802 97.15 54.2902C98.35 51.4102 99.42 48.4902 100.18 45.4102C100.27 48.5902 99.65 51.7702 98.92 54.8702C98.14 57.9602 97.17 61.0002 96.04 63.9702C93.81 69.9202 91.16 75.6902 88.23 81.3002C86.74 84.0902 85.24 86.8702 83.66 89.6102C82.05 92.3302 80.46 95.0602 78.74 97.7001C75.37 103.03 71.79 108.24 67.78 113.15Z" fill="#050504"/>
<path d="M26.19 34.6201C24.72 65.5501 31.65 87.8701 31.65 113.15C31.65 138.43 8.88 200.35 28.92 213.1C48.95 225.85 88.11 223.34 89.93 154.02C91.75 84.7001 69.85 25.5101 55.3 10.9401C40.76 -3.61994 28.02 -3.61994 26.19 34.6201Z" fill="#BBD28C" stroke="#276839" stroke-width="3.7942" stroke-miterlimit="10"/>
<path d="M35.41 5.03027C35.41 5.03027 68.66 98.7603 57.86 135.72C47.06 172.68 45.75 200.84 47 211.82C48.25 222.8 68.61 208.76 68.61 208.76C68.61 208.76 88.12 131.32 74.17 84.6903C60.22 38.0503 55.36 34.3603 55.19 18.2603C55.11 11.2103 50.31 5.97027 50.31 5.97027C43.49 4.26027 35.42 5.33027 50.31 5.97027" fill="#276839"/>
<path d="M35.41 5.03027C35.41 5.03027 68.66 98.7603 57.86 135.72C47.06 172.68 45.75 200.84 47 211.82C48.25 222.8 68.61 208.76 68.61 208.76C68.61 208.76 88.12 131.32 74.17 84.6903C60.22 38.0503 55.36 34.3603 55.19 18.2603C55.11 11.2103 50.31 5.97027 50.31 5.97027C43.49 4.26027 35.42 5.33027 50.31 5.97027" stroke="#ABC872" stroke-width="2.137" stroke-miterlimit="10"/>
<path d="M30.86 20.3701C30.86 20.3701 49.92 117.29 46.28 133.99C42.64 150.7 57.3 200.35 41.12 213.91C33.61 220.2 21.44 200.15 24.37 179.91C27.3 159.67 36.03 112.57 32.93 79.7401C29.84 46.9201 30.86 20.3701 30.86 20.3701Z" fill="#437C53" stroke="#ABC872" stroke-width="1.8971" stroke-miterlimit="10"/>
<path d="M25.71 216.43C22.1 217.62 18.48 218.74 14.86 219.88L15.21 218.51C18.87 221.6 22.47 224.77 26.1 227.9L31.56 232.58C33.4 234.11 35.23 235.66 36.95 237.34L38.31 238.67L37.11 240.04C36.22 241.06 35.3 242.05 34.35 243.03C33.43 244.02 32.45 244.97 31.48 245.93C29.51 247.81 27.5 249.67 25.27 251.33L24.98 251.09C26.24 248.61 27.73 246.32 29.25 244.05C30.03 242.94 30.8 241.81 31.62 240.73C32.42 239.63 33.25 238.56 34.1 237.5L34.26 240.2C32.48 238.6 30.82 236.87 29.17 235.13L24.16 229.97C20.81 226.54 17.42 223.16 14.11 219.69L13.07 218.6L14.46 218.32C18.18 217.56 21.89 216.78 25.62 216.07L25.71 216.43Z" fill="#050504"/>
<path d="M67.97 219.09C68.15 221.39 68.3 223.7 68.44 226L68.86 232.91C68.99 235.21 69.11 237.52 69.2 239.82C69.3 242.12 69.42 244.43 69.59 246.73L66.09 246.12C66.31 245.55 66.46 245.38 66.67 245.07C66.88 244.81 67.1 244.56 67.35 244.37C67.84 243.96 68.39 243.67 68.93 243.5C69.2 243.39 69.48 243.32 69.73 243.29C69.99 243.25 70.26 243.19 70.52 243.17C71 243.16 71.54 243.14 71.98 243.22C72.93 243.31 73.76 243.59 74.58 243.85C75.35 244.19 76.14 244.5 76.84 244.91C77.56 245.29 78.25 245.73 78.89 246.19C79.56 246.63 80.18 247.13 80.78 247.64C81.99 248.66 83.09 249.8 84.1 251.01L83.88 251.32C82.37 250.82 80.99 250.17 79.57 249.63L78.54 249.19C78.19 249.06 77.84 248.94 77.5 248.8L76.48 248.39C76.14 248.28 75.79 248.18 75.46 248.05C74.12 247.57 72.76 247.24 71.59 247.13C71.28 247.07 71.04 247.14 70.77 247.1C70.55 247.13 70.28 247.12 70.12 247.19C70.03 247.21 69.92 247.22 69.87 247.26C69.8 247.29 69.72 247.31 69.67 247.34C69.6 247.36 69.57 247.4 69.52 247.42C69.5 247.41 69.42 247.55 69.5 247.34L66 246.73C66.17 244.43 66.29 242.12 66.39 239.82C66.49 237.52 66.6 235.21 66.73 232.91L67.15 226C67.29 223.7 67.44 221.39 67.62 219.09H67.97Z" fill="#050504"/>
<path d="M40.52 87.7199C45.3967 87.7199 49.35 87.2095 49.35 86.5799C49.35 85.9503 45.3967 85.4399 40.52 85.4399C35.6433 85.4399 31.69 85.9503 31.69 86.5799C31.69 87.2095 35.6433 87.7199 40.52 87.7199Z" fill="#276839" stroke="#CCDBD0" stroke-width="4.3304" stroke-miterlimit="10"/>
<path d="M68.31 85.3601C73.1867 85.3601 77.14 84.8497 77.14 84.2201C77.14 83.5905 73.1867 83.0801 68.31 83.0801C63.4333 83.0801 59.48 83.5905 59.48 84.2201C59.48 84.8497 63.4333 85.3601 68.31 85.3601Z" fill="#276839" stroke="#CCDBD0" stroke-width="4.3304" stroke-miterlimit="10"/>
<path d="M40.52 86.5899C44.6566 86.5899 48.01 83.2365 48.01 79.0999C48.01 74.9632 44.6566 71.6099 40.52 71.6099C36.3834 71.6099 33.03 74.9632 33.03 79.0999C33.03 83.2365 36.3834 86.5899 40.52 86.5899Z" fill="#050504" stroke="#040504" stroke-width="1.4591" stroke-miterlimit="10"/>
<path d="M39.67 76.74C40.8464 76.74 41.8 75.7863 41.8 74.61C41.8 73.4336 40.8464 72.48 39.67 72.48C38.4936 72.48 37.54 73.4336 37.54 74.61C37.54 75.7863 38.4936 76.74 39.67 76.74Z" fill="#EBF2DE" stroke="#E4EDD2" stroke-width="0.415" stroke-miterlimit="10"/>
<path d="M68.31 84.23C72.4466 84.23 75.8 80.8766 75.8 76.74C75.8 72.6034 72.4466 69.25 68.31 69.25C64.1734 69.25 60.82 72.6034 60.82 76.74C60.82 80.8766 64.1734 84.23 68.31 84.23Z" fill="#050504" stroke="#040504" stroke-width="1.4591" stroke-miterlimit="10"/>
<path d="M68.62 74.3201C69.7964 74.3201 70.75 73.3664 70.75 72.1901C70.75 71.0137 69.7964 70.0601 68.62 70.0601C67.4436 70.0601 66.49 71.0137 66.49 72.1901C66.49 73.3664 67.4436 74.3201 68.62 74.3201Z" fill="#EBF2DE" stroke="#E4EDD2" stroke-width="0.415" stroke-miterlimit="10"/>
<path d="M28.37 69.1999C29.38 67.4899 30.59 65.9099 31.9 64.3899C33.23 62.8999 34.68 61.4999 36.31 60.2799C37.93 59.0799 39.71 57.8799 41.8 57.4599C43.85 57.0199 46.11 57.1999 47.91 58.2099L47.86 58.3899C46.84 58.4199 45.9 58.4799 44.97 58.6099C44.05 58.7599 43.16 58.9899 42.29 59.2799C41.42 59.5599 40.56 59.8999 39.7 60.2499C38.83 60.5899 37.98 61.0199 37.17 61.5199C35.54 62.5099 34.01 63.7199 32.58 65.0399C31.13 66.3399 29.78 67.7699 28.53 69.2899L28.37 69.1999Z" fill="#040504"/>
<path d="M82.16 67.2098C81.31 65.6198 80.11 64.2298 78.71 63.1898C77.32 62.1198 75.74 61.3798 74.1 60.9198L72.84 60.6798C72.43 60.5898 71.98 60.6198 71.56 60.5798C70.72 60.4798 69.86 60.5198 69 60.3998C68.57 60.3098 68.13 60.3598 67.7 60.3198C67.26 60.2798 66.82 60.2598 66.37 60.1998C65.47 60.1798 64.56 60.1298 63.59 59.9398L63.54 59.6998C64.37 59.1998 65.26 58.8298 66.17 58.4998C67.1 58.2698 68.04 58.0498 69.01 57.9698C70.96 57.8098 72.91 58.3598 74.72 59.0698C76.54 59.7998 78.2 60.8898 79.53 62.2798C80.84 63.6798 81.88 65.3098 82.39 67.1198L82.16 67.2098Z" fill="#040504"/>
<path d="M49.21 92.2998C50.55 93.7498 51.83 95.1898 53.19 96.5098C53.88 97.1498 54.55 97.7998 55.29 98.3298C56.01 98.8698 56.76 99.3398 57.51 99.5398C58.26 99.7698 58.92 99.7198 59.54 99.3298C60.17 98.9598 60.73 98.2798 61.2 97.5098C62.15 95.9598 62.8 94.1198 63.56 92.2998C63.57 94.2798 63.33 96.2698 62.51 98.1898C62.12 99.1498 61.49 100.1 60.52 100.83C60.04 101.2 59.42 101.42 58.79 101.53C58.16 101.59 57.53 101.54 56.98 101.36C54.75 100.61 53.32 99.0498 52.08 97.4898C50.87 95.8998 49.89 94.1598 49.21 92.2998Z" fill="#040504"/>
</svg>
