<svg width="347" height="490" viewBox="0 0 347 490" fill="none" xmlns="http://www.w3.org/2000/svg">
<path d="M35.2678 90.4509C35.6672 69.6893 113.414 36.5944 171.382 42.5498C211.959 46.7181 251.07 64.6786 280.268 82.2392C293.051 89.9279 231.134 99.3476 246.051 99.3476C246.304 99.3476 240.678 107.408 239.208 109.613C218.485 140.696 217.687 160.077 179.67 166.413C160.18 169.661 155.629 155.97 148.19 141.092C141.507 127.725 117.759 138.195 104.392 131.511C79.833 119.232 58.8175 106.11 35.2737 90.4509H35.2678Z" fill="url(#paint0_radial)"/>
<g filter="url(#filter0_f)">
<path d="M151.253 54.7912C159.731 53.6538 170.754 58.6179 173.37 65.1586L172.679 69.3055C172.25 75.415 168.936 85.4511 167.841 87.2762H164.385C152.351 77.9663 141.668 82.2817 133.974 83.8204L133.282 81.0559C134.026 74.2158 130.518 68.6996 130.518 61.7027C130.518 60.0499 131.622 49.262 129.135 49.262C127.458 49.262 129.017 53.3499 130.518 54.1001C134.14 55.911 142.653 49.8002 148.489 52.7178C152.361 54.6542 151.307 54.5203 150.562 58.2472L151.253 54.7913L151.253 54.7912Z" fill="white"/>
</g>
<path d="M135.186 114.403C140.417 105.838 152.572 97.2226 166.666 106.191L165.981 102.769C182.552 33.4722 222.491 -4.86154 284.371 4.22105H287.793C292.98 11.592 295.722 19.7448 294.636 26.804L295.321 30.2256C302.248 61.4658 285.641 59.9012 272.053 65.1275L269.316 62.3901C255.635 53.5856 233.648 40.7921 231.676 39.8072L228.939 42.5445C210.332 58.8875 210.531 90.9065 209.093 109.61L213.199 110.294C220.134 110.304 223.842 115.698 226.201 117.822L225.517 145.881C196.147 171.305 154.196 142.918 135.184 114.401L135.186 114.403Z" fill="url(#paint1_radial)"/>
<g filter="url(#filter1_f)">
<path d="M63.4163 373.398C37.5701 399.096 85.3994 408.266 117.614 427.596L127.292 435.338C146.97 429.024 223.097 478.898 239.56 462.436C256.866 445.13 269.305 431.901 287.951 417.917L297.629 410.175C361.058 306.223 106.54 344.649 63.4172 373.398H63.4163Z" fill="#550000"/>
<path d="M63.4163 373.398C37.5701 399.096 85.3994 408.266 117.614 427.596L127.292 435.338C146.97 429.024 223.097 478.898 239.56 462.436C256.866 445.13 269.305 431.901 287.951 417.917L297.629 410.175C361.058 306.223 106.54 344.649 63.4172 373.398H63.4163Z" stroke="black" stroke-width="0.95808"/>
</g>
<path d="M44.9444 84.5108C31.6358 84.8043 19.7019 90.8596 11.3216 106.876C-7.13294 154.096 2.62223 201.303 12.6988 248.519C16.3332 267.996 22.7481 294.913 37.31 320.375C43.995 337.088 56.0884 361.728 67.4301 373.069C81.5647 387.204 96.642 385.63 111.741 387.8C86.6147 362.633 90.0791 332.665 68.119 299.836L67.4304 296.423C41.9608 240.776 13.5384 99.6912 97.4001 102.297C80.6988 92.9134 61.7346 84.1425 44.9452 84.5132L44.9444 84.5108Z" fill="url(#paint2_radial)"/>
<path d="M180.35 139.035C206.325 149.038 220.937 111.934 236.854 91.6629C246.029 79.9772 267.583 78.29 286.424 87.7098C315.29 102.142 328.632 164.778 321.326 201.309C320.124 207.319 307.944 240.012 303.533 244.423C294.503 253.453 293.548 302.519 290.531 315.595L289.847 319.701C284.358 353.032 281.009 377.407 274.631 393.969C260.325 431.124 173.975 437.184 127.662 400.453C84.6345 372.939 93.8925 338.375 68.124 299.855L67.4396 296.433C40.5406 237.665 10.3495 83.5958 112.606 104.137C138.879 109.413 159.33 128.525 180.356 139.039L180.35 139.035Z" fill="url(#paint3_radial)"/>
<path d="M293.001 79.96C278.886 82.5693 270.401 80.1456 286.414 87.7145C315.28 102.147 328.631 164.774 321.325 201.304C320.123 207.315 307.952 240.007 303.541 244.418C294.511 253.448 293.564 302.509 290.547 315.585L289.859 319.687C285.894 343.764 283.03 363.148 279.35 378.31C294.686 371.979 309.724 362.711 313.122 358.01C313.8 357.072 345.966 302.575 345.966 278.639C345.966 273.384 356.65 235.038 358.959 227.322C376.181 169.789 352.448 78.2833 293.001 79.96H293.001Z" fill="url(#paint4_radial)"/>
<g opacity="0.6858" filter="url(#filter2_f)">
<path d="M286.697 6.40817C285.16 8.3068 276.097 12.0581 274.827 13.8303C271.109 19.0215 274.249 23.6736 272.546 27.803C264.043 48.4199 270.447 61.764 281.601 58.4721C287.42 56.7547 293.934 49.8421 295.669 40.8194C296.718 35.3637 296.021 29.1366 292.367 22.82C289.821 18.42 291.853 11.6641 286.696 6.40808L286.697 6.40817Z" fill="#54FF00"/>
</g>
<g filter="url(#filter3_f)">
<path d="M174.879 95.2414C177.931 60.716 205.305 30.4761 243.314 15.8577L241.945 22.7011C207.02 39.1772 187.232 70.7689 189.935 113.035L185.829 107.56C183.196 103.235 180.18 101.205 174.879 95.2418L174.879 95.2414Z" fill="#00FF00"/>
</g>
<path opacity="0.4866" d="M286.697 6.40817C285.16 8.3068 276.097 12.0581 274.827 13.8303C271.109 19.0215 274.249 23.6736 272.546 27.803C264.043 48.4199 270.447 61.764 281.601 58.4721C287.42 56.7547 293.934 49.8421 295.669 40.8194C296.718 35.3637 296.021 29.1366 292.367 22.82C289.821 18.42 291.853 11.6641 286.696 6.40808L286.697 6.40817Z" fill="black"/>
<g filter="url(#filter4_f)">
<path d="M91.3922 123.984C116.634 139.047 186.155 155.463 194.041 155.463L200.884 148.62C214.16 142.224 228.515 139.914 233.733 136.302L239.208 141.777C247.168 149.553 263.632 146.607 248.789 149.989L247.42 159.57C231.399 161.975 225.25 162.433 209.097 163.676L178.985 166.413C125.429 198.634 47.4408 137.505 91.3889 123.983L91.3922 123.984Z" fill="white"/>
</g>
<g filter="url(#filter5_f)">
<path d="M80.4413 367.604C76.2824 332.503 38.8683 259.562 35.2745 236.213L66.7542 264.956C104.891 293.437 101.499 348.238 124.239 390.876L120.133 385.401C113.782 381.688 107.178 378.401 100.971 374.451L94.128 375.82C86.22 375.743 91.0282 383.57 88.6532 389.507L87.2845 384.033C88.8917 376.425 82.9049 373.521 80.441 367.608L80.4413 367.604Z" fill="#800000"/>
</g>
<g opacity="0.8582" filter="url(#filter6_f)">
<path d="M57.6674 143.473C61.9041 151.203 56.4135 133.226 58.6485 128.756C67.4082 111.237 106.552 111.437 96.9108 130.718C94.1969 136.146 62.243 165.708 57.6672 161.132C54.7239 158.189 54.7239 151.56 57.6672 143.473L57.6674 143.473Z" fill="white"/>
</g>
<g opacity="0.8582" filter="url(#filter7_f)">
<path d="M20.2699 113.567C23.4604 119.388 19.3256 105.85 21.0087 102.484C27.6054 89.2905 57.0831 89.441 49.8229 103.962C47.7792 108.049 23.7156 130.311 20.2697 126.865C18.0532 124.649 18.0532 119.656 20.2697 113.567L20.2699 113.567Z" fill="white"/>
</g>
<g opacity="0.8582" filter="url(#filter8_f)">
<path d="M63.8318 75.8805C65.8715 79.6022 63.2281 70.9473 64.3041 68.7952C68.5215 60.3605 87.3671 60.4567 82.7256 69.7399C81.419 72.3531 66.0347 86.5858 63.8316 84.3827C62.4146 82.9657 62.4146 79.7739 63.8316 75.8806L63.8318 75.8805Z" fill="white"/>
</g>
<path d="M316.614 215.602C302.02 220.599 285.558 226.808 278.89 233.476C273.424 238.942 278.877 249.925 272.063 256.739C260.281 268.522 204.484 295.693 189.938 300.542C186.641 301.64 183.464 306.197 180.357 304.643C159.556 294.242 153.498 279.597 129.698 267.698C106.172 255.935 77.0978 254.866 53.0519 241.68L61.1057 280.991C61.1134 281.012 61.1281 281.031 61.1356 281.051C63.2125 286.677 65.3215 291.849 67.423 296.44L68.1116 299.853C93.8801 338.374 84.6347 372.937 127.662 400.451C173.984 437.181 260.327 431.109 274.641 393.954C281.018 377.392 284.362 353.035 289.851 319.703L290.539 315.601C293.557 302.526 294.503 253.464 303.533 244.434C306.361 241.606 312.342 227.196 316.616 215.602L316.614 215.602Z" fill="url(#paint5_radial)"/>
<path d="M316.614 215.602C302.02 220.599 285.558 226.808 278.89 233.476C273.424 238.942 278.877 249.925 272.063 256.739C260.281 268.522 204.484 295.693 189.938 300.542C186.641 301.64 183.464 306.197 180.357 304.643C159.556 294.242 153.498 279.597 129.698 267.698C106.172 255.935 77.0978 254.866 53.0519 241.68L61.1057 280.991C61.1134 281.012 61.1281 281.031 61.1356 281.051C63.2125 286.677 65.3215 291.849 67.423 296.44L68.1116 299.853C93.8801 338.374 84.6347 372.937 127.662 400.451C173.984 437.181 260.327 431.109 274.641 393.954C281.018 377.392 284.362 353.035 289.851 319.703L290.539 315.601C293.557 302.526 294.503 253.464 303.533 244.434C306.361 241.606 312.342 227.196 316.616 215.602L316.614 215.602Z" fill="url(#paint6_radial)"/>
<g filter="url(#filter9_f)">
<path d="M276.982 263.586C271.257 286.485 266.75 303.408 272.876 327.914C275.177 337.119 285.008 354.384 282.457 360.763C254.837 429.812 202.978 428.72 142.855 407.298L136.011 403.192C86.3743 386.948 120.956 298.809 120.956 274.531L276.989 263.581L276.982 263.586Z" fill="url(#paint7_radial)"/>
</g>
<path opacity="0.2682" d="M35.1529 262.701C28.7661 262.885 23.2842 266.955 19.105 276.144C23.1197 290.214 28.8209 305.553 37.3086 320.396C43.9936 337.109 56.0869 361.75 67.4287 373.09C81.5632 387.225 96.6405 385.651 111.74 387.821C86.6133 362.654 90.0777 332.686 68.1175 299.858L67.4289 296.444C64.5331 290.118 61.609 282.638 58.8062 274.438C50.194 266.965 42.1394 262.502 35.1531 262.702L35.1529 262.701Z" fill="url(#paint8_radial)"/>
<path d="M316.614 215.602C302.02 220.599 285.558 226.808 278.89 233.476C273.424 238.942 278.877 249.925 272.063 256.739C260.281 268.522 204.484 295.693 189.938 300.542C186.641 301.64 183.464 306.197 180.357 304.643C159.556 294.242 153.498 279.597 129.698 267.698C106.172 255.935 77.0978 254.866 53.0519 241.68L61.1057 280.991C61.1134 281.012 61.1281 281.031 61.1356 281.051C63.2125 286.677 65.3215 291.849 67.423 296.44L68.1116 299.853C93.8801 338.374 84.6347 372.937 127.662 400.451C173.984 437.181 260.327 431.109 274.641 393.954C281.018 377.392 284.362 353.035 289.851 319.703L290.539 315.601C293.557 302.526 294.503 253.464 303.533 244.434C306.361 241.606 312.342 227.196 316.616 215.602L316.614 215.602Z" fill="url(#paint9_radial)"/>
<g opacity="0.8314" filter="url(#filter10_f)">
<path d="M280.536 366.509C269.509 328.981 297.513 225.988 326.798 186.936L325.43 193.78C315.657 224.946 309.361 354.977 280.537 366.512L280.536 366.509Z" fill="#FF8080"/>
</g>
<g opacity="0.4559" filter="url(#filter11_f)">
<path d="M81.7443 162.403C106.986 177.466 176.507 193.882 184.393 193.882L197.044 177.361C210.32 170.965 224.674 168.655 229.892 165.043L235.367 170.518C243.327 178.295 259.791 175.349 244.948 178.73L243.579 188.311C227.558 190.716 221.409 191.174 205.256 192.417L175.144 195.154C121.588 227.375 37.794 175.925 81.7421 162.403L81.7443 162.403Z" fill="#FF0000"/>
</g>
<g opacity="0.4559" filter="url(#filter12_f)">
<path d="M87.8308 214.707C119.13 233.385 205.337 253.741 215.115 253.741L230.802 233.255C247.264 225.324 265.064 222.46 271.534 217.981L278.323 224.769C288.194 234.413 308.609 230.759 290.203 234.952L288.506 246.833C268.64 249.816 261.015 250.383 240.985 251.924L203.647 255.318C137.237 295.273 33.3325 231.474 87.8281 214.707L87.8308 214.707Z" fill="#800000"/>
</g>
<g opacity="0.8161" filter="url(#filter13_f)">
<path d="M36.3217 127.574C35.7232 121.683 34.3861 156.23 34.3861 172.093C34.3861 183.859 30.5149 196.839 30.5149 204.998C30.5149 247.321 43.0801 291.149 71.1624 263.066C78.9077 255.321 61.4839 239.506 61.4839 235.968C61.4839 211.171 65.9709 119.83 36.3209 127.571L36.3217 127.574Z" fill="#FF0000"/>
<path d="M36.3217 127.574C35.7232 121.683 34.3861 156.23 34.3861 172.093C34.3861 183.859 30.5149 196.839 30.5149 204.998C30.5149 247.321 43.0801 291.149 71.1624 263.066C78.9077 255.321 61.4839 239.506 61.4839 235.968C61.4839 211.171 65.9709 119.83 36.3209 127.571L36.3217 127.574Z" stroke="black" stroke-width="0.95808"/>
</g>
<g filter="url(#filter14_f)">
<path d="M274.404 107.793C280.511 125.609 299.285 129.613 305.858 146.156L312.633 163.207C316.664 173.352 308.116 194.464 312.633 205.832C313.955 209.16 318.44 215.229 318.44 220.447C318.44 226.866 325.256 210.574 327.15 204.615C329.69 196.624 340.525 161.72 339.248 155.29C336.664 142.283 337.453 143.288 330.537 134.586C326.986 130.117 329.025 111.712 324.731 109.01C319.876 105.956 313.17 103.959 307.794 101.703C303.755 100.009 299.955 106.128 296.664 104.748C290.038 101.968 277.525 99.6868 274.404 107.793L274.404 107.793Z" fill="#800000"/>
</g>
<g filter="url(#filter15_f)">
<path d="M266.224 80.8864C256.544 80.9326 241.996 84.7532 236.824 90.392C235.563 90.6672 234.351 90.9694 233.261 91.2902L235.836 91.5896C235.789 91.6508 235.733 91.7074 235.686 91.7693L237.722 91.8291C259.639 82.9654 272.75 91.7121 287.273 97.6375C284.781 95.6424 281.882 94.0315 278.71 92.7572L284.609 98.7437C285.301 100.279 289.092 96.1614 290.117 97.9668C294.344 88.5519 307.192 109.308 316.013 115.972C312.868 111.951 301.626 88.2442 287.684 91.5754C285.252 83.2398 304.177 90.095 319.394 95.6263C309.334 89.1057 279.627 80.823 266.225 80.8872L266.224 80.8864ZM290.117 97.9671L296.467 118.93C295.274 123.396 287.282 100.282 289.399 99.4942C294.448 97.6162 294.588 109.202 299.084 112.573L307.305 118.369C304.745 114.17 292.513 102.186 290.117 97.9671H290.117Z" fill="white"/>
</g>
<defs>
<filter id="filter0_f" x="119.8" y="40.6516" width="62.1809" height="55.2351" filterUnits="userSpaceOnUse" color-interpolation-filters="sRGB">
<feFlood flood-opacity="0" result="BackgroundImageFix"/>
<feBlend mode="normal" in="SourceGraphic" in2="BackgroundImageFix" result="shape"/>
<feGaussianBlur stdDeviation="4.30523" result="effect1_foregroundBlur"/>
</filter>
<filter id="filter1_f" x="27.2194" y="313.207" width="309.32" height="181.396" filterUnits="userSpaceOnUse" color-interpolation-filters="sRGB">
<feFlood flood-opacity="0" result="BackgroundImageFix"/>
<feBlend mode="normal" in="SourceGraphic" in2="BackgroundImageFix" result="shape"/>
<feGaussianBlur stdDeviation="14.168" result="effect1_foregroundBlur"/>
</filter>
<filter id="filter2_f" x="262.287" y="0.0648251" width="40.1698" height="65.2485" filterUnits="userSpaceOnUse" color-interpolation-filters="sRGB">
<feFlood flood-opacity="0" result="BackgroundImageFix"/>
<feBlend mode="normal" in="SourceGraphic" in2="BackgroundImageFix" result="shape"/>
<feGaussianBlur stdDeviation="3.17163" result="effect1_foregroundBlur"/>
</filter>
<filter id="filter3_f" x="159.568" y="0.546459" width="99.0575" height="127.799" filterUnits="userSpaceOnUse" color-interpolation-filters="sRGB">
<feFlood flood-opacity="0" result="BackgroundImageFix"/>
<feBlend mode="normal" in="SourceGraphic" in2="BackgroundImageFix" result="shape"/>
<feGaussianBlur stdDeviation="7.65563" result="effect1_foregroundBlur"/>
</filter>
<filter id="filter4_f" x="64.2772" y="109.788" width="204.693" height="80.0823" filterUnits="userSpaceOnUse" color-interpolation-filters="sRGB">
<feFlood flood-opacity="0" result="BackgroundImageFix"/>
<feBlend mode="normal" in="SourceGraphic" in2="BackgroundImageFix" result="shape"/>
<feGaussianBlur stdDeviation="7.09784" result="effect1_foregroundBlur"/>
</filter>
<filter id="filter5_f" x="15.5086" y="216.447" width="128.496" height="194.195" filterUnits="userSpaceOnUse" color-interpolation-filters="sRGB">
<feFlood flood-opacity="0" result="BackgroundImageFix"/>
<feBlend mode="normal" in="SourceGraphic" in2="BackgroundImageFix" result="shape"/>
<feGaussianBlur stdDeviation="9.88298" result="effect1_foregroundBlur"/>
</filter>
<filter id="filter6_f" x="39.2344" y="99.6998" width="75.4179" height="78.1371" filterUnits="userSpaceOnUse" color-interpolation-filters="sRGB">
<feFlood flood-opacity="0" result="BackgroundImageFix"/>
<feBlend mode="normal" in="SourceGraphic" in2="BackgroundImageFix" result="shape"/>
<feGaussianBlur stdDeviation="8.11264" result="effect1_foregroundBlur"/>
</filter>
<filter id="filter7_f" x="8.59291" y="82.8067" width="52.3863" height="54.4341" filterUnits="userSpaceOnUse" color-interpolation-filters="sRGB">
<feFlood flood-opacity="0" result="BackgroundImageFix"/>
<feBlend mode="normal" in="SourceGraphic" in2="BackgroundImageFix" result="shape"/>
<feGaussianBlur stdDeviation="5.00719" result="effect1_foregroundBlur"/>
</filter>
<filter id="filter8_f" x="56.3665" y="56.2152" width="33.4915" height="34.8007" filterUnits="userSpaceOnUse" color-interpolation-filters="sRGB">
<feFlood flood-opacity="0" result="BackgroundImageFix"/>
<feBlend mode="normal" in="SourceGraphic" in2="BackgroundImageFix" result="shape"/>
<feGaussianBlur stdDeviation="3.20119" result="effect1_foregroundBlur"/>
</filter>
<filter id="filter9_f" x="101.757" y="256.103" width="188.596" height="171.582" filterUnits="userSpaceOnUse" color-interpolation-filters="sRGB">
<feFlood flood-opacity="0" result="BackgroundImageFix"/>
<feBlend mode="normal" in="SourceGraphic" in2="BackgroundImageFix" result="shape"/>
<feGaussianBlur stdDeviation="3.73891" result="effect1_foregroundBlur"/>
</filter>
<filter id="filter10_f" x="264.059" y="172.914" width="76.7614" height="207.619" filterUnits="userSpaceOnUse" color-interpolation-filters="sRGB">
<feFlood flood-opacity="0" result="BackgroundImageFix"/>
<feBlend mode="normal" in="SourceGraphic" in2="BackgroundImageFix" result="shape"/>
<feGaussianBlur stdDeviation="7.01094" result="effect1_foregroundBlur"/>
</filter>
<filter id="filter11_f" x="55.2374" y="148.207" width="209.892" height="71.5766" filterUnits="userSpaceOnUse" color-interpolation-filters="sRGB">
<feFlood flood-opacity="0" result="BackgroundImageFix"/>
<feBlend mode="normal" in="SourceGraphic" in2="BackgroundImageFix" result="shape"/>
<feGaussianBlur stdDeviation="7.09784" result="effect1_foregroundBlur"/>
</filter>
<filter id="filter12_f" x="54.9623" y="197.104" width="260.266" height="88.755" filterUnits="userSpaceOnUse" color-interpolation-filters="sRGB">
<feFlood flood-opacity="0" result="BackgroundImageFix"/>
<feBlend mode="normal" in="SourceGraphic" in2="BackgroundImageFix" result="shape"/>
<feGaussianBlur stdDeviation="8.80132" result="effect1_foregroundBlur"/>
</filter>
<filter id="filter13_f" x="14.4557" y="110.846" width="74.75" height="177.155" filterUnits="userSpaceOnUse" color-interpolation-filters="sRGB">
<feFlood flood-opacity="0" result="BackgroundImageFix"/>
<feBlend mode="normal" in="SourceGraphic" in2="BackgroundImageFix" result="shape"/>
<feGaussianBlur stdDeviation="7.79005" result="effect1_foregroundBlur"/>
</filter>
<filter id="filter14_f" x="257.905" y="84.9059" width="97.9447" height="153.512" filterUnits="userSpaceOnUse" color-interpolation-filters="sRGB">
<feFlood flood-opacity="0" result="BackgroundImageFix"/>
<feBlend mode="normal" in="SourceGraphic" in2="BackgroundImageFix" result="shape"/>
<feGaussianBlur stdDeviation="8.2491" result="effect1_foregroundBlur"/>
</filter>
<filter id="filter15_f" x="230.098" y="77.7238" width="92.4585" height="44.9409" filterUnits="userSpaceOnUse" color-interpolation-filters="sRGB">
<feFlood flood-opacity="0" result="BackgroundImageFix"/>
<feBlend mode="normal" in="SourceGraphic" in2="BackgroundImageFix" result="shape"/>
<feGaussianBlur stdDeviation="1.58131" result="effect1_foregroundBlur"/>
</filter>
<radialGradient id="paint0_radial" cx="0" cy="0" r="1" gradientUnits="userSpaceOnUse" gradientTransform="translate(158.646 104.366) rotate(85.8431) scale(58.4631 151.331)">
<stop stop-color="#AA0000"/>
<stop offset="1" stop-color="#FF2A2A"/>
</radialGradient>
<radialGradient id="paint1_radial" cx="0" cy="0" r="1" gradientUnits="userSpaceOnUse" gradientTransform="translate(178.99 155.763) rotate(-82.8554) scale(77.0291 76.4316)">
<stop/>
<stop offset="1" stop-color="#008000"/>
</radialGradient>
<radialGradient id="paint2_radial" cx="0" cy="0" r="1" gradientUnits="userSpaceOnUse" gradientTransform="translate(0.896396 84.5117) rotate(79.7789) scale(226.693 151.65)">
<stop stop-color="#FF2A2A"/>
<stop offset="1" stop-color="#AA0000"/>
</radialGradient>
<radialGradient id="paint3_radial" cx="0" cy="0" r="1" gradientUnits="userSpaceOnUse" gradientTransform="translate(182.359 81.6389) rotate(90) scale(201.634 183.665)">
<stop stop-color="#FF2A2A"/>
<stop offset="1" stop-color="#AA0000"/>
</radialGradient>
<radialGradient id="paint4_radial" cx="0" cy="0" r="1" gradientUnits="userSpaceOnUse" gradientTransform="translate(326.789 88.4079) rotate(84.3031) scale(140.853 85.1568)">
<stop stop-color="#FF0000"/>
<stop offset="1" stop-color="#AA0000"/>
</radialGradient>
<radialGradient id="paint5_radial" cx="0" cy="0" r="1" gradientUnits="userSpaceOnUse" gradientTransform="translate(98.2282 384.03) rotate(-18.7185) scale(94.9781 140.772)">
<stop stop-color="white"/>
<stop offset="0.4421" stop-color="#FF2A2A" stop-opacity="0.549"/>
<stop offset="1" stop-color="#FF2A2A" stop-opacity="0"/>
</radialGradient>
<radialGradient id="paint6_radial" cx="0" cy="0" r="1" gradientUnits="userSpaceOnUse" gradientTransform="translate(275.552 425.106) rotate(11.0885) scale(94.9773 213.496)">
<stop stop-color="white"/>
<stop offset="0.4421" stop-color="#FF2A2A" stop-opacity="0.549"/>
<stop offset="1" stop-color="#FF2A2A" stop-opacity="0"/>
</radialGradient>
<radialGradient id="paint7_radial" cx="0" cy="0" r="1" gradientUnits="userSpaceOnUse" gradientTransform="translate(196.05 429.184) rotate(-90) scale(47.6081 78.3101)">
<stop stop-color="#800000"/>
<stop offset="1" stop-color="#800000" stop-opacity="0"/>
</radialGradient>
<radialGradient id="paint8_radial" cx="0" cy="0" r="1" gradientUnits="userSpaceOnUse" gradientTransform="translate(36.6769 266.356) rotate(88.9183) scale(124.857 192.307)">
<stop stop-color="white"/>
<stop offset="1" stop-color="white" stop-opacity="0"/>
</radialGradient>
<radialGradient id="paint9_radial" cx="0" cy="0" r="1" gradientUnits="userSpaceOnUse" gradientTransform="translate(53.0547 278.663) scale(36.1496 28.8409)">
<stop stop-color="white"/>
<stop offset="0.4421" stop-color="#FF2A2A" stop-opacity="0.549"/>
<stop offset="1" stop-color="#FF2A2A" stop-opacity="0"/>
</radialGradient>
</defs>
</svg>
