<svg width="30" height="30" viewBox="0 0 30 30" fill="none" xmlns="http://www.w3.org/2000/svg">
<path fill-rule="evenodd" clip-rule="evenodd" d="M21.1997 1.49878H8.8012C6.8649 1.49878 5.00791 2.27428 3.63874 3.65469C2.26957 5.0351 1.50038 6.90733 1.50038 8.85952V21.1382C1.50038 23.0904 2.26957 24.9626 3.63874 26.343C5.00791 27.7234 6.8649 28.4989 8.8012 28.4989H21.1997C23.136 28.4989 24.993 27.7234 26.3621 26.343C27.7313 24.9626 28.5005 23.0904 28.5005 21.1382V8.85952C28.5005 6.90733 27.7313 5.0351 26.3621 3.65469C24.993 2.27428 23.136 1.49878 21.1997 1.49878" fill="#F00A10"/>
<path d="M17.9026 14.9997L22.2561 10.6105C22.7122 10.1506 22.9402 9.64205 22.9402 9.08472C22.9126 8.58309 22.6845 8.11631 22.2561 7.68434C21.8691 7.29419 21.413 7.07125 20.8879 7.01553C20.3489 6.97371 19.8376 7.19665 19.3539 7.68434L15.0005 12.0735L10.647 7.68434C10.2048 7.23844 9.70723 7.0155 9.15436 7.01553C8.61537 7.05732 8.14548 7.28025 7.7447 7.68434C7.3992 8.03268 7.1988 8.48552 7.14351 9.04289C7.08823 9.62809 7.28863 10.1506 7.7447 10.6105L12.0982 14.9997L7.7447 19.3888C7.35774 19.779 7.14352 20.2875 7.10205 20.9146C7.14352 21.458 7.35774 21.9248 7.7447 22.315C8.10403 22.6772 8.56012 22.9001 9.11287 22.9838C9.65187 23.0256 10.1632 22.8026 10.6469 22.315L15.0003 17.9258L19.3538 22.315C19.8099 22.7747 20.3143 22.9768 20.8671 22.9211C21.4337 22.8793 21.8967 22.6772 22.2561 22.315C22.5878 21.9805 22.7882 21.5277 22.8573 20.9564C22.9402 20.399 22.7398 19.8765 22.2561 19.3888L17.9026 14.9997Z" fill="#CB1E0E"/>
<path d="M17.6774 14.9996L21.6913 10.9529C22.1118 10.5289 22.322 10.06 22.322 9.54611C22.2965 9.0836 22.0863 8.65323 21.6913 8.25504C21.3345 7.89531 20.914 7.68976 20.4298 7.63839C19.9329 7.59983 19.4614 7.80539 19.0154 8.25504L15.0016 12.3018L10.9877 8.25504C10.58 7.84392 10.1213 7.63837 9.61154 7.63839C9.11459 7.67691 8.68135 7.88247 8.31176 8.25504C7.9932 8.5762 7.80844 8.99373 7.75746 9.50758C7.7065 10.0471 7.89126 10.5289 8.31176 10.9529L12.3256 14.9996L8.31176 19.0464C7.95498 19.4061 7.75747 19.875 7.71924 20.4532C7.75747 20.9542 7.95498 21.3846 8.31176 21.7443C8.64307 22.0783 9.06357 22.2838 9.57321 22.3609C10.0702 22.3994 10.5416 22.1939 10.9876 21.7443L15.0015 17.6975L19.0153 21.7443C19.4358 22.1682 19.9009 22.3545 20.4106 22.3031C20.933 22.2645 21.3599 22.0783 21.6912 21.7443C21.997 21.4359 22.1817 21.0184 22.2455 20.4917C22.3219 19.9778 22.1371 19.496 21.6912 19.0464L17.6773 14.9996" fill="white"/>
<path fill-rule="evenodd" clip-rule="evenodd" d="M21.366 2.65429H8.63281C5.26226 2.65429 2.54883 5.38999 2.54883 8.7882V21.2119C2.65792 23.8645 3.07759 22.1876 3.87638 19.25C4.80475 15.8359 7.82813 12.8521 11.5101 10.6157C14.3204 8.90889 17.4661 7.81899 23.192 7.7152C26.4395 7.6564 26.1527 3.50029 21.3659 2.6541L21.366 2.65429Z" fill="url(#paint0_linear)"/>
<defs>
<linearGradient id="paint0_linear" x1="8.21501" y1="-2.8276" x2="14.5985" y2="15.6268" gradientUnits="userSpaceOnUse">
<stop stop-color="white"/>
<stop offset="1" stop-color="white" stop-opacity="0"/>
</linearGradient>
</defs>
</svg>
