<svg width="20" height="20" viewBox="0 0 20 20" fill="none" xmlns="http://www.w3.org/2000/svg">
<path d="M14.5629 1.80963L14.849 1.83313L15.1352 1.85663L15.3896 1.88013L15.6121 1.90363L15.8029 1.92713L15.9937 1.95063L16.1527 1.97414L16.3117 1.99764L16.4706 2.04464L16.5978 2.06814L16.6932 2.09164L16.8204 2.11514L16.9158 2.16215L16.9794 2.18565L17.0748 2.23265L17.1384 2.25615L17.202 2.30316L17.2973 2.32666L17.4245 2.39717L17.6153 2.49117L17.8061 2.56168L17.9651 2.58518L18.124 2.60868L18.3148 2.56168L18.4738 2.51467L18.601 2.42067L18.6646 2.30316L18.7282 2.18564V2.06813L18.6964 1.92712L18.601 1.83311L18.5056 1.7391L18.3466 1.66859L18.2512 1.62159L18.124 1.57459L17.9969 1.50408L17.9333 1.45708L17.8379 1.43358L17.7425 1.38657L17.6471 1.33957L17.5517 1.31607L17.4563 1.26906L17.3291 1.22206L17.2337 1.19856L17.1066 1.15156L16.9794 1.12806L16.8522 1.08105L16.725 1.05755L16.566 1.03405L16.407 1.01055L16.2163 0.963546L16.0573 0.940045L15.8347 0.916543L15.6439 0.893042H15.3896L15.167 0.86954L14.9126 0.846039H14.4675L14.3085 0.893042L14.1813 0.963546L14.0541 1.05755L13.9905 1.17506L13.9587 1.29258V1.43359L14.0223 1.5511L14.1177 1.64511L14.2449 1.73912L14.4039 1.78612L14.5629 1.80962V1.80963Z" fill="#F00A10"/>
<path d="M5.69172 0.752049H5.43736L5.18299 0.775551L4.96042 0.799052L4.73784 0.822554L4.51527 0.846055H4.32449L4.13371 0.869557L3.97473 0.916559L3.81575 0.940061L3.65677 0.963562L3.52959 0.987064L3.3706 1.03407L3.24342 1.05757L3.11623 1.10457L3.02085 1.12807L2.89366 1.17508L2.79828 1.22208L2.70288 1.24558L2.6075 1.29258L2.51211 1.33959L2.44852 1.38659L2.35314 1.43359L2.22595 1.48059L2.13056 1.5276L2.00338 1.5746L1.87619 1.6451L1.74901 1.73911L1.65362 1.83312L1.62183 1.97413V2.09165L1.68542 2.20916L1.7808 2.32667L1.90798 2.42068L2.03517 2.46768L2.22595 2.51469L2.38493 2.49118L2.57571 2.46768L2.73469 2.39717L2.92547 2.30317L3.08445 2.23266L3.14804 2.20916L3.21163 2.16215L3.30702 2.13865L3.37061 2.09165L3.466 2.06815L3.56139 2.04465L3.65678 1.99764L3.78397 1.97414L3.91115 1.95064L4.03833 1.90364L4.19732 1.88014L4.35629 1.85664L4.54707 1.83313L4.76964 1.80963L4.99222 1.78613L5.24658 1.76263L5.50095 1.73913L5.78712 1.71563L5.97789 1.69213L6.10508 1.64512L6.23226 1.55112L6.32765 1.45711L6.39125 1.33959L6.42304 1.19858L6.35945 1.08107L6.29586 0.963558L6.16867 0.869552L6.04149 0.799048L5.88251 0.752045H5.69173L5.69172 0.752049Z" fill="#F00A10"/>
<path d="M16.1523 3.36078L15.9933 3.43128L15.8661 3.50179L15.7389 3.57229L15.6117 3.61929L15.4845 3.64279L15.3574 3.6898L15.262 3.7133L15.1348 3.7368H15.0076L14.8486 3.7603H13.9265L13.7039 3.7368H13.1316L13.0044 3.7133H10.7152L10.5244 3.7368H9.85666L9.63408 3.7603H7.82172L7.63094 3.7368H7.24939L7.09042 3.7133H6.89964L6.74066 3.6898H6.58168L6.4227 3.6663L6.26372 3.64279H6.10474L5.94576 3.61929L5.78677 3.59579H5.65959L5.50061 3.57229L5.37342 3.54879L5.24624 3.52529L5.11906 3.50179L4.96007 3.47828L4.83289 3.45478H4.7057L4.57852 3.43128L4.48313 3.40778L4.35594 3.38428L4.26055 3.36078L4.13337 3.33728L4.03799 3.31377L3.94259 3.29027L3.84721 3.26677L3.75182 3.24327L3.65644 3.21977L3.56105 3.19627L3.46566 3.17277L3.40207 3.14926L3.21129 3.12576H3.05231L2.86153 3.14926L2.73434 3.21977L2.60716 3.31378L2.54357 3.43129L2.47998 3.5488L2.51178 3.68982L2.54357 3.80733L2.63896 3.92484L2.76614 3.99534L2.92513 4.06585L2.98872 4.08935L3.0841 4.11285L3.17949 4.13635L3.27488 4.15985L3.37027 4.18336L3.46565 4.20686L3.56104 4.23036L3.65643 4.25386L3.78362 4.27736L3.879 4.30086L4.00619 4.32436L4.10158 4.34787L4.22876 4.37137L4.35595 4.39487L4.45134 4.41837L4.57853 4.44187L4.73751 4.46537H4.86469L4.99188 4.48887L5.11907 4.51238L5.24625 4.53588H5.40523L5.56421 4.55938L5.69139 4.58288L5.85038 4.60638H6.00936L6.16834 4.62988L6.32732 4.65338H6.4863L6.64528 4.67689H6.83605L6.99504 4.70039H7.15401L7.34479 4.72389H7.88532L8.0761 4.74739H9.28438L9.47516 4.72389H10.1429L10.3655 4.70039H11.1604L11.3512 4.67689H12.2097L12.3686 4.70039H13.2907L13.4179 4.72389H14.022L14.181 4.74739H14.8169L14.9441 4.72389H15.1031L15.2303 4.70039H15.3575L15.5164 4.67689L15.6436 4.65338L15.7708 4.60638L15.898 4.58288L16.0252 4.53588L16.1842 4.51238L16.3114 4.44187L16.4385 4.39487L16.5975 4.32436L16.7565 4.25386L16.9155 4.15985L17.0427 4.06584L17.138 3.97183L17.1698 3.85432V3.73681L17.138 3.5958L17.0745 3.47828L16.9473 3.38428L16.7883 3.31377L16.6293 3.29027H16.4703L16.3114 3.31377L16.1524 3.36078H16.1523Z" fill="#F00A10"/>
<path d="M16.3437 4.95874L16.2483 4.98225L16.1529 5.00575L16.0893 5.02925L15.9939 5.05275L15.8985 5.07625L15.8349 5.09975L15.7396 5.12325L15.676 5.14676L15.5806 5.17026H15.517L15.4216 5.19376H15.358L15.2626 5.21726L15.199 5.24076H15.1036L15.0082 5.26426H14.9128L14.7857 5.28776H14.6903L14.5631 5.31127H14.3405L14.2133 5.33477H13.8954L13.7682 5.35827H13.0369L12.8143 5.38177H8.96692L8.77614 5.35827H8.23561L8.07664 5.33477H7.72688L7.5679 5.31127H7.37712L7.21814 5.28776H7.05916L6.90018 5.26426H6.7412L6.58222 5.24076L6.39144 5.21726H6.23246L6.07349 5.19376L5.9463 5.17026H5.78732L5.62834 5.14676L5.50115 5.12325H5.34217L5.21498 5.09975L5.05601 5.07625L4.92882 5.05275L4.76984 5.02925L4.64266 5.00575L4.51547 4.98225L4.38828 4.95874L4.26109 4.93524L4.13391 4.91174L4.00673 4.88824L3.87954 4.86474L3.75236 4.84124L3.65697 4.81774L3.52979 4.79423L3.4344 4.74723L3.30722 4.72373L3.21183 4.70023L3.02105 4.67673H2.86206L2.70308 4.70023L2.5441 4.77073L2.44871 4.86474L2.35333 4.98225L2.32153 5.12326V5.24077L2.35333 5.35828L2.44871 5.47579L2.5759 5.5463L2.73488 5.6168L2.83027 5.64031L2.95745 5.68731L3.08464 5.71081L3.18002 5.73431L3.30721 5.75781L3.43439 5.78131L3.56158 5.80482L3.65696 5.82832L3.78415 5.85182L3.91133 5.89882L4.07032 5.92232L4.1975 5.94582L4.32468 5.96933L4.45187 5.99283H4.57906L4.73803 6.01633L4.86522 6.03983L5.0242 6.06333L5.18318 6.08683L5.31037 6.11033L5.46935 6.13384H5.62833L5.78731 6.15734L5.9145 6.18084H6.07348L6.23246 6.20434L6.39144 6.22784H6.55042L6.7094 6.25134H6.90018L7.05916 6.27484H7.21813L7.37712 6.29835H7.56789L7.72687 6.32185H8.07663L8.23561 6.34535H8.77614L8.96692 6.36885H12.6872L12.9098 6.34535H13.8001L13.9591 6.32185H14.2452L14.4042 6.29835H14.6268L14.754 6.27484H14.8812L15.0083 6.25134H15.1037L15.1991 6.22784H15.2945L15.3899 6.20434L15.5171 6.18084H15.5807L15.6761 6.15734L15.7715 6.13384L15.8668 6.11033H15.9622L16.0576 6.08683L16.1212 6.06333L16.2166 6.03983L16.312 6.01633L16.4074 5.99283L16.5028 5.96933L16.5982 5.92232L16.6936 5.89882L16.8207 5.87532L16.9479 5.80482L17.0751 5.73431L17.1705 5.61679L17.2341 5.49928V5.38178L17.2023 5.24076L17.1069 5.12325L16.9797 5.02924L16.8525 4.98224L16.6936 4.93524H16.5028L16.3438 4.95874L16.3437 4.95874Z" fill="#F00A10"/>
<path d="M18.156 17.6733L18.0924 17.7203L18.0606 17.7673L17.997 17.8379L17.9334 17.8614L17.8698 17.9084L17.8062 17.9554L17.7427 18.0024L17.6791 18.0494L17.6155 18.0729L17.5201 18.1199L17.4247 18.1434L17.3293 18.1904L17.2339 18.2139L17.1385 18.2374L17.0431 18.2844L16.9159 18.3079L16.8206 18.3549L16.6934 18.3784L16.5662 18.4019L16.439 18.4254L16.3118 18.4489L16.1846 18.4959L16.0574 18.5194L15.9303 18.5429L15.8031 18.5664L15.6441 18.5899L15.4851 18.6134L15.3579 18.6369H15.199L15.04 18.6604L14.881 18.6839L14.722 18.7074L14.563 18.7309H14.4041L14.2451 18.7544L14.0861 18.7779H13.8953L13.7363 18.8014H13.5456L13.3866 18.8249L13.1958 18.8484H13.005L12.8142 18.8719H12.6553L12.4645 18.8954H12.2737L12.0829 18.9189H11.7014L11.5106 18.9424H11.3198L11.1291 18.9659H10.7475L10.5567 18.9894H9.95261L9.79363 19.0129H8.9033L8.71252 18.9894H8.39457L8.20379 18.9659H8.04481L7.85403 18.9424L7.69505 18.9189H7.50428L7.3453 18.8954L7.18631 18.8719L7.02734 18.8484L6.86835 18.8249L6.67758 18.8014L6.5186 18.7779L6.35962 18.7544L6.20064 18.7309L6.04166 18.7074L5.88268 18.6839L5.72369 18.6604L5.56472 18.6369L5.40574 18.6134L5.27855 18.5664L5.11957 18.5429L4.99238 18.5194L4.8334 18.4724L4.67443 18.4489L4.54724 18.4254L4.38826 18.3784L4.26107 18.3549L4.13389 18.3079L4.0067 18.2844L3.84772 18.2374L3.72054 18.2139L3.59336 18.1904L3.46617 18.1434L3.33899 18.1199L3.2436 18.0964L3.11641 18.0494L2.98923 18.0259L2.86205 17.9789L2.76667 17.9554L2.67127 17.9319L2.54409 17.8849L2.44871 17.8614L2.32153 17.8379L2.22614 17.8144L2.13075 17.7673L2.03536 17.7438L1.93998 17.7203L1.7492 17.6498L1.52663 17.6028L1.33585 17.5323L1.17687 17.5088H1.01788L0.858901 17.5558L0.699919 17.6263L0.572738 17.7203L0.477352 17.8379L0.445557 17.9554V18.0964L0.509147 18.1904L0.604539 18.3079L0.73172 18.4019L0.890702 18.4724L1.04969 18.5194L1.24046 18.5664L1.46304 18.6369L1.55842 18.6604L1.65381 18.6839L1.7492 18.7074L1.84459 18.7544L1.93997 18.7779L2.03536 18.8014L2.16254 18.8249L2.25793 18.8719L2.38511 18.8954L2.5123 18.9189L2.60768 18.966L2.73486 18.9895L2.83025 19.0365L2.95743 19.06L3.08462 19.0835L3.2436 19.1305L3.37078 19.154L3.49797 19.201L3.62515 19.2245L3.75234 19.2715L3.87952 19.295L4.0385 19.3185L4.16569 19.3655L4.32467 19.389L4.45185 19.4125L4.61084 19.4595L4.76981 19.483L4.897 19.5065L5.05598 19.5535L5.21496 19.577L5.37394 19.6005L5.53292 19.624L5.6919 19.6475L5.85088 19.6945L6.00986 19.718L6.16884 19.7415L6.32782 19.765L6.48681 19.7885L6.67758 19.812L6.83657 19.8355L6.99555 19.859H7.15452L7.3453 19.8825L7.50429 19.906L7.69506 19.9295H7.85404L8.04482 19.953H8.2038L8.39458 19.9765H8.74433L8.93511 20H9.82544L10.0162 19.9765H10.4614L10.6839 19.953H11.1291L11.3516 19.9295H11.5424L11.765 19.906H11.9558L12.1783 19.8825H12.3691L12.5917 19.859H12.7507L12.9733 19.8355H13.164L13.3548 19.812H13.5456L13.7046 19.7885L13.8953 19.765H14.0543L14.2451 19.7415L14.4041 19.718H14.5631L14.7538 19.6945L14.9128 19.671L15.0718 19.6475L15.2308 19.624H15.3897L15.5169 19.6005L15.6759 19.577L15.8349 19.5535L15.9939 19.53L16.1211 19.5065L16.2482 19.483L16.3754 19.4595L16.5344 19.436L16.6616 19.4125L16.7888 19.3655L16.916 19.342L17.0431 19.3185L17.1385 19.295L17.2657 19.2715L17.3929 19.2245L17.4883 19.201L17.6155 19.1775L17.7109 19.1305L17.8063 19.107L17.9016 19.06L17.997 19.013L18.0924 18.9895L18.1878 18.9424L18.2832 18.8954L18.3786 18.8719L18.474 18.8249L18.5376 18.7779L18.6012 18.7309L18.6965 18.7074L18.7601 18.6604L18.8237 18.6134L18.8873 18.5429L18.9509 18.4959L19.0145 18.4489L19.0781 18.4019L19.1417 18.3549L19.2053 18.2844L19.2371 18.2374L19.3007 18.1904L19.3642 18.0729L19.396 17.9319L19.3642 17.8144L19.3007 17.6968L19.2053 17.5793L19.0463 17.5088L18.8873 17.4618L18.6965 17.4383L18.5375 17.4618L18.3786 17.5088L18.2514 17.5793L18.156 17.6733L18.156 17.6733Z" fill="#F00A10"/>
<path d="M1.11304 6.93313V16.4985L1.17663 16.616L1.30381 16.71L1.431 16.804L1.58998 16.851H1.93974L2.09872 16.804L2.2259 16.71L2.35309 16.616L2.41668 16.4985V6.79217L2.35309 6.67466L2.2259 6.58065L2.09872 6.48664L1.93974 6.43964L1.78076 6.41614L1.58998 6.43964L1.431 6.48664L1.30381 6.58065L1.17663 6.67466L1.11304 6.79217V6.93318V6.93313Z" fill="#F00A10"/>
<path d="M4.10181 6.98027V17.0156L4.1654 17.1332L4.29258 17.2272L4.41977 17.3212L4.57875 17.3682H4.9285L5.08748 17.3212L5.21467 17.2272L5.31006 17.1332L5.37365 17.0156L5.40544 16.8981V6.98039L5.37365 6.83938L5.31006 6.72187L5.21467 6.62786L5.08748 6.55735L4.9285 6.51035L4.73772 6.48685L4.57875 6.51035L4.41977 6.55735L4.29258 6.62786L4.1654 6.72187L4.10181 6.83938V6.98039V6.98027Z" fill="#F00A10"/>
<path d="M7.24976 7.59127V17.6266L7.34515 17.7442L7.44053 17.8382L7.56772 17.9322L7.7267 17.9792H8.07646L8.23543 17.9322L8.36262 17.8382L8.4898 17.7442L8.55339 17.6266L8.58519 17.5091V7.59138L8.55339 7.47387L8.4898 7.35636L8.36262 7.23885L8.23543 7.16834L8.07646 7.12134L7.88568 7.09784L7.7267 7.12134L7.56772 7.16834L7.44053 7.23885L7.34515 7.35636L7.24976 7.47387V7.59138V7.59127Z" fill="#F00A10"/>
<path d="M10.6521 7.6146V17.6266L10.6839 17.7441L10.7475 17.8617L10.8429 17.9792L11.0019 18.0497L11.129 18.0967L11.3198 18.1202L11.5106 18.0967L11.6696 18.0497L11.7968 17.9792L11.8922 17.8617L11.9557 17.7441L11.9875 17.6266V7.6146L11.9557 7.4971L11.8922 7.37958L11.7968 7.26207L11.6696 7.19157L11.5106 7.14456L11.3198 7.12106L11.129 7.14456L11.0019 7.19157L10.8429 7.26207L10.7475 7.37958L10.6839 7.4971L10.6521 7.6146Z" fill="#F00A10"/>
<path d="M14.2769 7.47364V16.898L14.3087 17.039L14.3722 17.1565L14.4676 17.2506L14.5948 17.3446L14.7538 17.3916H15.1036L15.2625 17.3446L15.3897 17.2506L15.5169 17.1565L15.5805 17.039L15.6123 16.898V7.47364L15.5805 7.33263L15.5169 7.21512L15.3897 7.12111L15.2625 7.05061L15.1036 7.0036L14.9446 6.9801L14.7538 7.0036L14.5948 7.05061L14.4676 7.12111L14.3722 7.21512L14.3087 7.33263L14.2769 7.47364H14.2769Z" fill="#F00A10"/>
<path d="M17.5833 7.12126V16.4985L17.615 16.6395L17.6786 16.757L17.774 16.851L17.9012 16.9215L18.0602 16.9685L18.251 16.992L18.4417 16.9685L18.6007 16.9215L18.7279 16.851L18.8233 16.757L18.8869 16.6395L18.9187 16.4985V7.12126L18.8869 7.00374L18.8233 6.88624L18.7279 6.76872L18.6007 6.69822L18.4417 6.65122L18.251 6.62772L18.0602 6.65122L17.9012 6.69822L17.774 6.76872L17.6786 6.88624L17.615 7.00374L17.5833 7.12126Z" fill="#F00A10"/>
<path d="M13.4817 2.16218L13.4499 2.04467V1.92716L13.4181 1.80965L13.3863 1.69214L13.3546 1.57462L13.291 1.45711L13.2274 1.3396L13.132 1.24559L13.0684 1.12808L12.973 1.03407L12.8776 0.916561L12.7504 0.822555L12.655 0.728545L12.5279 0.658041L12.4007 0.587536L12.2735 0.517032L12.1463 0.446528L12.0191 0.376023L11.8919 0.32902L11.733 0.258516L11.6058 0.211513L11.4468 0.188012L11.2878 0.141009L11.1288 0.117507L11.0016 0.0705043L10.8109 0.0470029L10.6519 0.0235015H10.4929L10.3339 0H10.016L9.85699 0.0235015H9.69801L9.57082 0.0470029L9.41185 0.0705043L9.28466 0.0940058L9.12568 0.117507L8.9985 0.16451L8.83951 0.188012L8.71233 0.235015L8.58515 0.258516L8.45796 0.305519L8.36257 0.376023L8.23539 0.423026L8.1082 0.470029L7.98102 0.540533L7.88563 0.611042L7.79024 0.681547L7.69485 0.752051L7.59946 0.822555L7.50407 0.89306L7.44048 0.963564L7.34509 1.05757L7.2815 1.12808L7.21791 1.22209L7.15432 1.31609L7.09073 1.3866L7.02714 1.48061L6.99535 1.57462L6.96355 1.66863L6.93176 1.76264L6.89996 1.85664V2.06816L6.86816 2.16217L6.89996 2.30318L6.96355 2.4207L7.05894 2.5147L7.18612 2.58521L7.3769 2.63221L7.53588 2.65571L7.72666 2.63221L7.85385 2.58521L8.01283 2.5147L8.10822 2.4207L8.17181 2.30318L8.2036 2.16217L8.2354 1.99766L8.26719 1.85664L8.36258 1.71563L8.42618 1.59812L8.55336 1.50411L8.64874 1.4336L8.74413 1.3396L8.87132 1.26909L9.0303 1.22208L9.18928 1.15158L9.31647 1.10457L9.47545 1.05757L9.63443 1.03407L9.8252 1.01057L9.98419 0.987066H10.3339L10.5247 1.01057L10.6837 1.03407L10.8427 1.05757L11.0335 1.10457L11.1606 1.15158L11.3196 1.22208L11.4468 1.26909L11.574 1.3396L11.7012 1.4336L11.7966 1.50411L11.892 1.59812L11.9873 1.71563L12.0509 1.85664L12.1145 1.99766L12.1463 2.16217V2.30318L12.2417 2.4207L12.3371 2.5147L12.4643 2.58521L12.6233 2.63221L12.7823 2.65571L12.973 2.63221L13.132 2.58521L13.2592 2.5147L13.3864 2.4207L13.45 2.30318L13.4818 2.16217L13.4817 2.16218Z" fill="#F00A10"/>
<path d="M1.30364 5.61688L1.33544 3.10216V2.96114L1.27185 2.84363L1.14467 2.74962L1.04927 2.67912L0.890292 2.60861H0.508737L0.349754 2.65561L0.222567 2.72612L0.127181 2.84363L0.063591 2.96114L0.0317955 3.07865L0 5.59338V5.73439L0.063591 5.8519L0.190778 5.94591L0.317959 6.01642L0.476941 6.08692H0.826702L0.985685 6.03992L1.11287 5.94591L1.20826 5.8519L1.27185 5.75789L1.30364 5.61688Z" fill="#F00A10"/>
<path d="M20 5.80497V3.43126L19.9682 3.29024L19.9046 3.17273L19.8092 3.07872L19.682 3.00822L19.523 2.96122L19.3323 2.93771L19.1733 2.96122L19.0143 3.00822L18.8553 3.07872L18.7599 3.17273L18.6963 3.29024L18.6646 3.43126V5.80497L18.6963 5.94598L18.7599 6.06349L18.8553 6.1575L19.0143 6.22801L19.1733 6.27501L19.3323 6.29851L19.523 6.27501L19.682 6.22801L19.8092 6.1575L19.9046 6.06349L19.9682 5.94598L20 5.80497Z" fill="#F00A10"/>
</svg>
