<svg width="373" height="507" viewBox="0 0 373 507" fill="none" xmlns="http://www.w3.org/2000/svg">
<g filter="url(#filter0_f)">
<path d="M319.88 472.43C319.88 479.277 263.092 484.828 193.04 484.828C122.988 484.828 66.2004 479.277 66.2004 472.43C66.2004 465.583 122.988 460.032 193.04 460.032C263.092 460.032 319.88 465.583 319.88 472.43Z" fill="#2B2200"/>
</g>
<path opacity="0.84" d="M67.0313 282.099C39.0104 360.084 71.8609 446.365 154.699 473.62C197.149 489.627 211.682 478.241 242.477 472.916C265.9 468.865 288.589 472.087 309.801 461.481C337.912 431.327 352.401 396.382 355.658 357.63C360.842 331.707 358.334 309.389 351.902 288.345C341.907 238.16 302.548 211.878 284.412 167.707C272.629 100.826 243.876 84.6437 180.093 90.7407C153.388 93.1748 129.914 104.564 122.329 131.046C109.244 156.05 82.4462 246.236 67.0309 282.102L67.0313 282.099Z" fill="#FFCC00" stroke="black" stroke-width="1.8882"/>
<path d="M67.0313 282.099C39.0104 360.084 71.8609 446.365 154.699 473.62C197.149 489.627 211.682 478.241 242.477 472.916C265.9 468.865 288.589 472.087 309.801 461.481C337.912 431.327 352.401 396.382 355.658 357.63C360.842 331.707 358.334 309.389 351.902 288.345C341.907 238.16 302.548 211.878 284.412 167.707C272.629 100.826 243.876 84.6437 180.093 90.7407C153.388 93.1748 129.914 104.564 122.329 131.046C109.244 156.05 82.4462 246.236 67.0309 282.102L67.0313 282.099Z" fill="url(#paint0_radial)"/>
<path opacity="0.69" d="M249.395 354.557C249.395 406.027 207.669 447.754 156.199 447.754C104.729 447.754 63.0022 406.027 63.0022 354.557C63.0022 303.087 104.729 261.36 156.199 261.36C207.669 261.36 249.395 303.087 249.395 354.557Z" fill="url(#paint1_radial)"/>
<path opacity="0.5" d="M228.624 150.653C228.624 184.396 201.269 211.751 167.526 211.751C133.782 211.751 106.427 184.396 106.427 150.653C106.427 116.91 133.782 89.5542 167.526 89.5542C201.269 89.5542 228.624 116.91 228.624 150.653Z" fill="url(#paint2_radial)"/>
<path d="M155.361 110.481C172.622 103.839 186.794 96.6567 204.927 96.6567" stroke="black" stroke-width="1.8882"/>
<path d="M67.0313 282.099C39.0104 360.084 71.8609 446.365 154.699 473.62C197.149 489.627 211.682 478.241 242.477 472.916C265.9 468.865 288.589 472.087 309.801 461.481C337.912 431.327 352.401 396.382 355.658 357.63C360.842 331.707 358.334 309.389 351.902 288.345C341.907 238.16 302.548 211.878 284.412 167.707C272.629 100.826 243.876 84.6437 180.093 90.7407C153.388 93.1748 129.914 104.564 122.329 131.046C109.244 156.05 82.4462 246.236 67.0309 282.102L67.0313 282.099Z" fill="url(#paint3_radial)" stroke="#D4AA00" stroke-width="1.8882"/>
<g filter="url(#filter1_f)">
<path d="M67.4656 269.298C78.3962 266.719 101.493 269.603 109.427 261.668C113.516 257.579 108.284 242.412 107.52 237.826C102.166 205.702 120.306 159.66 116.103 138.642L68.4182 196.818L67.4645 269.298L67.4656 269.298Z" fill="#554400"/>
</g>
<path d="M172.903 102.72L169.868 57.5377L168.857 55.8519C162.088 51.7886 157.236 39.3614 167.508 37.3071V35.9583C166.888 26.9282 168.308 27.2262 174.251 22.4711L175.937 21.1224C180.323 15.2535 182.835 7.41355 190.773 13.3674L192.122 12.0187C201.517 2.78671 209.881 -0.883793 223.817 1.90338L225.503 2.24059C231.016 3.392 225.503 5.72657 225.503 8.30982L227.189 8.64703C229.593 9.74442 228.836 11.4425 228.201 13.0303L226.178 13.3675C207.766 17.8091 214.238 11.5281 205.273 23.4827L203.925 24.4942C202.444 22.1838 197.181 31.9587 197.181 29.2147C197.181 27.1638 205.241 33.68 201.902 42.0275V43.7134C208.469 52.6078 205.794 65.1615 199.879 73.0485L198.53 75.0715C182.133 78.3026 189.72 71.4231 185.38 60.5728V62.2586C189.307 75.4736 187.403 84.3657 187.403 98.6065L172.904 102.72L172.903 102.72Z" fill="#552200"/>
<g filter="url(#filter2_f)">
<path d="M205.908 10.8406C199.52 12.6406 194.54 23.8334 189.8 22.6566C188.455 18.5054 184.795 18.0491 184.135 22.6415C181.569 28.3681 171.527 30.0206 175.343 37.3931C176.814 43.0046 165.421 43.2941 171.272 47.7192C174.129 49.8997 177.731 57.0611 178.058 57.6323C177.922 51.8453 180.431 46.653 182.306 41.2286C188.683 48.1133 193.121 59.2157 195.051 66.6607C202.504 57.2031 193.096 46.625 194.756 36.272C189.28 33.7343 187.097 25.4631 193.812 22.7597C197.548 18.8885 203.086 14.0831 205.908 10.8405L205.908 10.8406ZM178.174 63.8877C179.225 72.5034 177.926 84.977 180.122 91.6801C180.748 82.2408 179.938 72.5602 178.292 63.2401L178.174 63.8891L178.174 63.8877Z" fill="#AA4400"/>
<path d="M205.908 10.8406C199.52 12.6406 194.54 23.8334 189.8 22.6566C188.455 18.5054 184.795 18.0491 184.135 22.6415C181.569 28.3681 171.527 30.0206 175.343 37.3931C176.814 43.0046 165.421 43.2941 171.272 47.7192C174.129 49.8997 177.731 57.0611 178.058 57.6323C177.922 51.8453 180.431 46.653 182.306 41.2286C188.683 48.1133 193.121 59.2157 195.051 66.6607C202.504 57.2031 193.096 46.625 194.756 36.272C189.28 33.7343 187.097 25.4631 193.812 22.7597C197.548 18.8885 203.086 14.0831 205.908 10.8405L205.908 10.8406ZM178.174 63.8877C179.225 72.5034 177.926 84.977 180.122 91.6801C180.748 82.2408 179.938 72.5602 178.292 63.2401L178.174 63.8891L178.174 63.8877Z" stroke="#AA4400" stroke-width="1.8882"/>
</g>
<path d="M171.543 72.3771C166.689 71.8376 147.284 78.1009 134.453 84.5156C130.106 86.6893 104.057 80.0949 110.851 85.1899L107.479 84.5156C58.618 82.0219 19.5247 94.8928 -2.03473 122.21C-4.30378 125.085 -13.9313 135.673 -15.8029 138.867C-17.5397 141.831 -11.5484 137.379 -12.928 140.616C-17.4559 151.241 -20.0198 163.331 -20.3639 176.858C-20.4322 179.544 -24.1894 193.616 -24.0806 196.416C-23.9709 199.241 -19.9934 190.794 -19.699 193.734C-18.9068 201.648 -17.4387 209.976 -15.2542 218.713C-12.1213 231.245 -13.6097 245.225 -9.18498 258.499C-5.61779 269.201 -15.5618 311.928 -25.0999 310.021H-21.7281C0.163692 307.552 19.8312 303.184 35.5769 296.015C65.3821 281.734 81.2392 245.298 95.5461 216.153C108.113 189.326 116.488 159.551 112.874 136.441L113.549 133.069C116.619 122.37 122.96 104.709 135.131 93.9591C143.565 86.5112 159.198 76.8801 172.217 75.7485L171.543 72.3768L171.543 72.3771Z" fill="url(#paint4_radial)"/>
<path d="M-15.2376 307.042C-1.94978 297.912 16.5106 268.089 26.9769 246.35C52.7149 192.893 114.652 73.8574 169.266 74.1198" stroke="#00FF00" stroke-width="1.8882"/>
<g filter="url(#filter3_f)">
<path d="M-15.2376 307.042C-1.94978 297.912 16.5106 268.089 26.9769 246.35C52.7149 192.893 114.652 73.8574 169.266 74.1198" stroke="#00FF00" stroke-width="1.8882"/>
</g>
<g filter="url(#filter4_f)">
<path d="M52.3977 190.031L26.3934 181.221L16.7362 170.816L26.3934 181.221L9.26913 181.612L-2.87104 188.45L9.26913 181.612L26.3934 181.221L52.3977 190.031ZM52.3977 190.031L31.703 205.14L10.1738 204.936L-3.48754 195.688L10.1738 204.936L-6.80172 213.421L-12.8757 226.429L-6.80172 213.421L10.1738 204.936L31.703 205.14L22.2992 224.296L9.78084 233.899L22.2992 224.296L20.85 239.335L12.2976 249.837L20.85 239.335L22.2992 224.296L31.703 205.14L52.3977 190.031Z" stroke="#00FF00" stroke-width="0.997196"/>
</g>
<g filter="url(#filter5_f)">
<path d="M86.3853 140.938L60.381 132.128L50.7238 121.723L60.381 132.128L43.2568 132.518L31.1166 139.357L43.2568 132.518L60.381 132.128L86.3853 140.938ZM86.3853 140.938L65.6906 156.047L44.1614 155.843L30.5001 146.595L44.1614 155.843L27.1859 164.328L21.1119 177.336L27.1859 164.328L44.1614 155.843L65.6906 156.047L56.2868 175.203L43.7685 184.806L56.2868 175.203L54.8377 190.242L46.2853 200.744L54.8377 190.242L56.2868 175.203L65.6906 156.047L86.3853 140.938Z" stroke="#00FF00" stroke-width="0.997196"/>
</g>
<g filter="url(#filter6_f)">
<path d="M95.9962 124.076L69.3518 107.261L61.3732 93.0576L69.3518 107.261L50.1432 103.096L34.7617 107.464L50.1432 103.096L69.3518 107.261L95.9962 124.076ZM95.9962 124.076L68.8496 135.373L44.8845 129.361L32.1281 115.373L44.8845 129.361L23.6668 134.267L13.3954 147.148L23.6668 134.267L44.8845 129.361L68.8496 135.373L53.2115 154.218L36.6652 161.568L53.2115 154.218L47.5543 170.606L35.1909 180.026L47.5543 170.606L53.2115 154.218L68.8496 135.373L95.9962 124.076Z" stroke="#00FF00" stroke-width="1.14432"/>
</g>
<g filter="url(#filter7_f)">
<path d="M33.9689 243.467L45.5122 260.357L48.9687 274.624L45.5122 260.357L53.8344 264.541L60.4983 260.154L53.8344 264.541L45.5122 260.357L33.9689 243.467ZM33.9689 243.467L45.7297 232.119L56.112 238.158L61.6385 252.209L56.112 238.158L65.3045 233.23L69.7544 220.292L65.3045 233.23L56.112 238.158L45.7297 232.119L52.5046 213.19L59.6729 205.807L52.5046 213.19L54.9554 196.728L60.3117 187.266L54.9554 196.728L52.5046 213.19L45.7297 232.119L33.9689 243.467Z" stroke="#00FF00" stroke-width="0.754883"/>
</g>
<g filter="url(#filter8_f)">
<path d="M68.2019 176.323L83.8532 163.149L91.0106 150.331L83.8532 163.149L92.9929 161.35L98.2353 167.365L92.9929 161.35L83.8532 163.149L68.2019 176.323ZM68.2019 176.323L76.4873 190.409L88.109 187.377L97.2026 175.324L88.109 187.377L95.6425 194.59L96.4583 208.248L95.6425 194.59L88.109 187.377L76.4873 190.409L77.9357 210.462L82.8605 219.498L77.9357 210.462L75.8804 226.978L78.502 237.53L75.8804 226.978L77.9357 210.462L76.4873 190.409L68.2019 176.323Z" stroke="#00FF00" stroke-width="0.754883"/>
</g>
<g filter="url(#filter9_f)">
<path d="M0.226746 236.745L15.878 223.571L23.0354 210.754L15.878 223.571L25.0177 221.773L30.2601 227.787L25.0177 221.773L15.878 223.571L0.226746 236.745ZM0.226746 236.745L8.51215 250.832L20.1338 247.8L29.2274 235.747L20.1338 247.8L27.6674 255.013L28.4831 268.671L27.6674 255.013L20.1338 247.8L8.51215 250.832L9.96053 270.885L14.8853 279.92L9.96053 270.885L7.90522 287.401L10.5268 297.953L7.90522 287.401L9.96053 270.885L8.51215 250.832L0.226746 236.745" stroke="#00FF00" stroke-width="0.754883"/>
</g>
<g filter="url(#filter10_f)">
<path d="M69.5614 146.734L42.9171 129.92L34.9385 115.716L42.9171 129.92L23.7084 125.755L8.32693 130.122L23.7084 125.755L42.9171 129.92L69.5614 146.734ZM69.5614 146.734L42.4148 158.032L18.4498 152.02L5.69327 138.032L18.4498 152.02L-2.76794 156.925L-13.0394 169.806L-2.76794 156.925L18.4498 152.02L42.4148 158.032L26.7767 176.876L10.2304 184.227L26.7767 176.876L21.1195 193.265L8.75612 202.684L21.1195 193.265L26.7767 176.876L42.4148 158.032L69.5614 146.734Z" stroke="#00FF00" stroke-width="1.14432"/>
</g>
<g filter="url(#filter11_f)">
<path d="M249.548 479.98C249.548 483.03 224.252 485.502 193.047 485.502C161.842 485.502 136.546 483.03 136.546 479.98C136.546 476.93 161.842 474.457 193.047 474.457C224.252 474.457 249.548 476.93 249.548 479.98Z" fill="#2B2200"/>
</g>
<g filter="url(#filter12_f)">
<path d="M189.481 327.813C189.481 353.511 171.366 374.344 149.019 374.344C126.672 374.344 108.557 353.511 108.557 327.813C108.557 302.114 126.672 281.282 149.019 281.282C171.366 281.282 189.481 302.114 189.481 327.813Z" fill="#FFF6D5"/>
</g>
<g filter="url(#filter13_f)">
<path d="M221.379 161.67C221.379 188.435 202.512 210.132 179.238 210.132C155.963 210.132 137.096 188.435 137.096 161.67C137.096 134.905 155.963 113.208 179.238 113.208C202.512 113.208 221.379 134.905 221.379 161.67Z" fill="#FFF6D5"/>
</g>
<g filter="url(#filter14_f)">
<path d="M214.028 470.919C256.831 453.554 313.141 401.122 331.366 275.359L332.715 282.102C355.93 333.686 317.224 462.306 214.028 470.922L214.028 470.919Z" fill="#808000"/>
<path d="M214.028 470.919C256.831 453.554 313.141 401.122 331.366 275.359L332.715 282.102C355.93 333.686 317.224 462.306 214.028 470.922L214.028 470.919Z" stroke="black" stroke-width="1.8882"/>
</g>
<g filter="url(#filter15_f)">
<path d="M252.953 468.174C284.635 455.321 326.313 416.513 339.802 323.428L340.801 328.419C357.984 366.599 329.335 461.799 252.953 468.176L252.953 468.174Z" fill="#FFCC00"/>
</g>
<defs>
<filter id="filter0_f" x="44.2154" y="438.047" width="297.65" height="68.766" filterUnits="userSpaceOnUse" color-interpolation-filters="sRGB">
<feFlood flood-opacity="0" result="BackgroundImageFix"/>
<feBlend mode="normal" in="SourceGraphic" in2="BackgroundImageFix" result="shape"/>
<feGaussianBlur stdDeviation="10.9925" result="effect1_foregroundBlur"/>
</filter>
<filter id="filter1_f" x="47.604" y="118.782" width="88.9974" height="170.377" filterUnits="userSpaceOnUse" color-interpolation-filters="sRGB">
<feFlood flood-opacity="0" result="BackgroundImageFix"/>
<feBlend mode="normal" in="SourceGraphic" in2="BackgroundImageFix" result="shape"/>
<feGaussianBlur stdDeviation="9.93023" result="effect1_foregroundBlur"/>
</filter>
<filter id="filter2_f" x="164.54" y="5.83147" width="46.3131" height="90.2429" filterUnits="userSpaceOnUse" color-interpolation-filters="sRGB">
<feFlood flood-opacity="0" result="BackgroundImageFix"/>
<feBlend mode="normal" in="SourceGraphic" in2="BackgroundImageFix" result="shape"/>
<feGaussianBlur stdDeviation="2.05021" result="effect1_foregroundBlur"/>
</filter>
<filter id="filter3_f" x="-18.9226" y="70.025" width="191.343" height="240.946" filterUnits="userSpaceOnUse" color-interpolation-filters="sRGB">
<feFlood flood-opacity="0" result="BackgroundImageFix"/>
<feBlend mode="normal" in="SourceGraphic" in2="BackgroundImageFix" result="shape"/>
<feGaussianBlur stdDeviation="1.57514" result="effect1_foregroundBlur"/>
</filter>
<filter id="filter4_f" x="-17.9558" y="165.848" width="76.0519" height="88.9325" filterUnits="userSpaceOnUse" color-interpolation-filters="sRGB">
<feFlood flood-opacity="0" result="BackgroundImageFix"/>
<feBlend mode="normal" in="SourceGraphic" in2="BackgroundImageFix" result="shape"/>
<feGaussianBlur stdDeviation="2.31418" result="effect1_foregroundBlur"/>
</filter>
<filter id="filter5_f" x="18.21" y="118.933" width="71.6955" height="84.576" filterUnits="userSpaceOnUse" color-interpolation-filters="sRGB">
<feFlood flood-opacity="0" result="BackgroundImageFix"/>
<feBlend mode="normal" in="SourceGraphic" in2="BackgroundImageFix" result="shape"/>
<feGaussianBlur stdDeviation="1.22506" result="effect1_foregroundBlur"/>
</filter>
<filter id="filter6_f" x="8.78873" y="88.618" width="92.6047" height="96.0224" filterUnits="userSpaceOnUse" color-interpolation-filters="sRGB">
<feFlood flood-opacity="0" result="BackgroundImageFix"/>
<feBlend mode="normal" in="SourceGraphic" in2="BackgroundImageFix" result="shape"/>
<feGaussianBlur stdDeviation="2.07966" result="effect1_foregroundBlur"/>
</filter>
<filter id="filter7_f" x="31.3864" y="184.989" width="40.816" height="91.8151" filterUnits="userSpaceOnUse" color-interpolation-filters="sRGB">
<feFlood flood-opacity="0" result="BackgroundImageFix"/>
<feBlend mode="normal" in="SourceGraphic" in2="BackgroundImageFix" result="shape"/>
<feGaussianBlur stdDeviation="1.0455" result="effect1_foregroundBlur"/>
</filter>
<filter id="filter8_f" x="64.397" y="146.829" width="37.4407" height="94.1097" filterUnits="userSpaceOnUse" color-interpolation-filters="sRGB">
<feFlood flood-opacity="0" result="BackgroundImageFix"/>
<feBlend mode="normal" in="SourceGraphic" in2="BackgroundImageFix" result="shape"/>
<feGaussianBlur stdDeviation="1.65897" result="effect1_foregroundBlur"/>
</filter>
<filter id="filter9_f" x="-3.3569" y="207.473" width="36.9981" height="93.6671" filterUnits="userSpaceOnUse" color-interpolation-filters="sRGB">
<feFlood flood-opacity="0" result="BackgroundImageFix"/>
<feBlend mode="normal" in="SourceGraphic" in2="BackgroundImageFix" result="shape"/>
<feGaussianBlur stdDeviation="1.54832" result="effect1_foregroundBlur"/>
</filter>
<filter id="filter10_f" x="-16.6861" y="112.236" width="90.6847" height="94.1025" filterUnits="userSpaceOnUse" color-interpolation-filters="sRGB">
<feFlood flood-opacity="0" result="BackgroundImageFix"/>
<feBlend mode="normal" in="SourceGraphic" in2="BackgroundImageFix" result="shape"/>
<feGaussianBlur stdDeviation="1.59968" result="effect1_foregroundBlur"/>
</filter>
<filter id="filter11_f" x="126.753" y="464.664" width="132.588" height="30.6318" filterUnits="userSpaceOnUse" color-interpolation-filters="sRGB">
<feFlood flood-opacity="0" result="BackgroundImageFix"/>
<feBlend mode="normal" in="SourceGraphic" in2="BackgroundImageFix" result="shape"/>
<feGaussianBlur stdDeviation="4.89662" result="effect1_foregroundBlur"/>
</filter>
<filter id="filter12_f" x="71.4618" y="244.187" width="155.114" height="167.251" filterUnits="userSpaceOnUse" color-interpolation-filters="sRGB">
<feFlood flood-opacity="0" result="BackgroundImageFix"/>
<feBlend mode="normal" in="SourceGraphic" in2="BackgroundImageFix" result="shape"/>
<feGaussianBlur stdDeviation="18.5474" result="effect1_foregroundBlur"/>
</filter>
<filter id="filter13_f" x="98.462" y="74.5735" width="161.551" height="174.192" filterUnits="userSpaceOnUse" color-interpolation-filters="sRGB">
<feFlood flood-opacity="0" result="BackgroundImageFix"/>
<feBlend mode="normal" in="SourceGraphic" in2="BackgroundImageFix" result="shape"/>
<feGaussianBlur stdDeviation="19.3171" result="effect1_foregroundBlur"/>
</filter>
<filter id="filter14_f" x="180.15" y="242.387" width="192.806" height="262.331" filterUnits="userSpaceOnUse" color-interpolation-filters="sRGB">
<feFlood flood-opacity="0" result="BackgroundImageFix"/>
<feBlend mode="normal" in="SourceGraphic" in2="BackgroundImageFix" result="shape"/>
<feGaussianBlur stdDeviation="16.3932" result="effect1_foregroundBlur"/>
</filter>
<filter id="filter15_f" x="235.348" y="305.823" width="127.876" height="179.958" filterUnits="userSpaceOnUse" color-interpolation-filters="sRGB">
<feFlood flood-opacity="0" result="BackgroundImageFix"/>
<feBlend mode="normal" in="SourceGraphic" in2="BackgroundImageFix" result="shape"/>
<feGaussianBlur stdDeviation="8.80232" result="effect1_foregroundBlur"/>
</filter>
<radialGradient id="paint0_radial" cx="0" cy="0" r="1" gradientUnits="userSpaceOnUse" gradientTransform="translate(255.332 481.834) rotate(149.376) scale(89.1396 45.7019)">
<stop stop-color="#AA8800"/>
<stop offset="1" stop-color="#D4AA00" stop-opacity="0"/>
</radialGradient>
<radialGradient id="paint1_radial" cx="0" cy="0" r="1" gradientUnits="userSpaceOnUse" gradientTransform="translate(149.138 365.467) rotate(-6.22029) scale(100.911 93.1965)">
<stop stop-color="#FFF6D5"/>
<stop offset="1" stop-color="#FFF6D5" stop-opacity="0"/>
</radialGradient>
<radialGradient id="paint2_radial" cx="0" cy="0" r="1" gradientUnits="userSpaceOnUse" gradientTransform="translate(162.897 157.805) rotate(-6.22029) scale(66.1559 61.0984)">
<stop stop-color="white"/>
<stop offset="1" stop-color="#FFF6D5" stop-opacity="0"/>
</radialGradient>
<radialGradient id="paint3_radial" cx="0" cy="0" r="1" gradientUnits="userSpaceOnUse" gradientTransform="translate(291.572 172.984) rotate(149.376) scale(89.1396 45.7019)">
<stop stop-color="#AA8800"/>
<stop offset="1" stop-color="#D4AA00" stop-opacity="0"/>
</radialGradient>
<radialGradient id="paint4_radial" cx="0" cy="0" r="1" gradientUnits="userSpaceOnUse" gradientTransform="translate(56.9267 164.076) rotate(93.3782) scale(194.553 119.811)">
<stop stop-color="#55D400"/>
<stop offset="1" stop-color="#005500"/>
</radialGradient>
</defs>
</svg>
