<svg width="48" height="48" viewBox="0 0 48 48" fill="none" xmlns="http://www.w3.org/2000/svg">
<path opacity="0.63068" fill-rule="evenodd" clip-rule="evenodd" d="M42.9747 42.375C42.9747 43.1137 42.4965 43.8451 41.5674 44.5276C40.6384 45.2101 39.2766 45.8301 37.5599 46.3525C35.8432 46.8748 33.8051 47.2891 31.5622 47.5718C29.3192 47.8545 26.9151 48 24.4874 48C22.0596 48 19.6555 47.8545 17.4125 47.5718C15.1696 47.2891 13.1315 46.8748 11.4148 46.3525C9.69811 45.8301 8.33634 45.2101 7.40727 44.5276C6.47819 43.8451 6 43.1137 6 42.375C6 41.6363 6.47819 40.9049 7.40727 40.2224C8.33634 39.5399 9.69811 38.9199 11.4148 38.3975C13.1315 37.8752 15.1696 37.4609 17.4125 37.1782C19.6555 36.8955 22.0596 36.75 24.4874 36.75C26.9151 36.75 29.3192 36.8955 31.5622 37.1782C33.8051 37.4609 35.8432 37.8752 37.5599 38.3975C39.2766 38.9199 40.6384 39.5399 41.5674 40.2224C42.4965 40.9049 42.9747 41.6363 42.9747 42.375Z" fill="url(#paint0_radial)"/>
<path d="M44.5305 23.9989C44.5305 29.445 42.3676 34.6681 38.5177 38.519C34.6677 42.37 29.4459 44.5335 24.0012 44.5335C18.5565 44.5335 13.3348 42.37 9.48482 38.519C5.63483 34.6681 3.47192 29.445 3.47192 23.9989C3.47192 18.5528 5.63483 13.3298 9.48482 9.47879C13.3348 5.62781 18.5565 3.46436 24.0012 3.46436C29.4459 3.46436 34.6677 5.62781 38.5177 9.47879C42.3676 13.3298 44.5305 18.5528 44.5305 23.9989Z" fill="url(#paint1_radial)" stroke="#204A87" stroke-width="0.93856"/>
<path opacity="0.96023" d="M42.706 24.0012C42.706 28.9631 40.7352 33.7217 37.2271 37.2302C33.719 40.7387 28.9611 42.7098 23.9999 42.7098C19.0387 42.7098 14.2807 40.7387 10.7726 37.2302C7.26452 33.7217 5.2937 28.9631 5.2937 24.0012C5.2937 19.0394 7.26452 14.2808 10.7726 10.7723C14.2807 7.26374 19.0387 5.29266 23.9999 5.29266C28.9611 5.29266 33.719 7.26374 37.2271 10.7723C40.7352 14.2808 42.706 19.0394 42.706 24.0012V24.0012Z" stroke="white" stroke-width="2.5918"/>
<path d="M24.5197 13.4551C23.6197 13.4551 22.6945 13.558 21.731 13.7422C20.7676 13.9263 19.7082 14.1911 18.5439 14.5774H18.5174L18.4908 14.6035L18.4643 14.6296C18.4632 14.6382 18.4632 14.647 18.4643 14.6557C18.4653 14.6643 18.4632 14.6731 18.4643 14.6818V18.9883C18.4632 18.9969 18.4632 19.0057 18.4643 19.0144C18.4653 19.023 18.4632 19.0318 18.4643 19.0405L18.4908 19.0666L18.5174 19.0927H18.5439H18.5705H18.5971H18.6236C19.5946 18.4921 20.5217 18.0344 21.4123 17.7355C22.3031 17.4275 23.1488 17.2657 23.9089 17.2657C24.7156 17.2657 25.3069 17.4415 25.7415 17.7877C26.1738 18.1235 26.4054 18.6087 26.4054 19.2232C26.4054 19.6246 26.2829 20.0178 26.0336 20.4238C25.7931 20.8305 25.4045 21.2845 24.865 21.7549L23.9354 22.5379C22.9143 23.4403 22.2448 24.2008 21.917 24.8086C21.5913 25.4028 21.4389 26.0775 21.4389 26.8444V27.523C21.4379 27.5316 21.4379 27.5404 21.4389 27.5491C21.4399 27.5577 21.4379 27.5665 21.4389 27.5752L21.4654 27.6013L21.492 27.6274H21.5186H21.5451H26.7241H26.7507H26.7773L26.8038 27.6013L26.8304 27.5752C26.8314 27.5665 26.8314 27.5577 26.8304 27.5491C26.8293 27.5404 26.8314 27.5316 26.8304 27.523V26.8966C26.8304 26.5055 26.9565 26.1509 27.1491 25.8265C27.338 25.4997 27.7509 25.0327 28.3974 24.4693L29.3004 23.6863C30.2069 22.8659 30.8562 22.1122 31.2392 21.3895C31.6221 20.6667 31.8235 19.8248 31.8235 18.91C31.8235 17.1341 31.1914 15.7913 29.9378 14.8645C28.684 13.9282 26.8729 13.4551 24.5197 13.4551ZM21.492 29.4544L21.4654 29.4805L21.4389 29.5066C21.4379 29.5152 21.4379 29.524 21.4389 29.5327C21.4399 29.5413 21.4379 29.5501 21.4389 29.5588V34.4395C21.4379 34.4481 21.4379 34.4569 21.4389 34.4656C21.4399 34.4742 21.4379 34.483 21.4389 34.4917L21.4654 34.5178L21.492 34.5439H21.5186H21.5451H26.7241H26.7507H26.7773L26.8038 34.5178L26.8304 34.4917C26.8314 34.483 26.8314 34.4742 26.8304 34.4656C26.8293 34.4569 26.8314 34.4481 26.8304 34.4395V29.5588C26.8314 29.5501 26.8314 29.5413 26.8304 29.5327C26.8293 29.524 26.8314 29.5152 26.8304 29.5066L26.8038 29.4805L26.7773 29.4544H26.7507H26.7241H21.5451H21.5186H21.492Z" fill="url(#paint2_radial)" stroke="white" stroke-opacity="0.78613" stroke-width="0.926343"/>
<defs>
<radialGradient id="paint0_radial" cx="0" cy="0" r="1" gradientUnits="userSpaceOnUse" gradientTransform="translate(24.4874 42.375) scale(18.4874 5.62502)">
<stop/>
<stop offset="1" stop-opacity="0"/>
</radialGradient>
<radialGradient id="paint1_radial" cx="0" cy="0" r="1" gradientUnits="userSpaceOnUse" gradientTransform="translate(25.6742 28.7335) rotate(0.275595) scale(26.0028 28.3829)">
<stop stop-color="#9CBCDE"/>
<stop offset="1" stop-color="#204A87"/>
</radialGradient>
<radialGradient id="paint2_radial" cx="0" cy="0" r="1" gradientUnits="userSpaceOnUse" gradientTransform="translate(25.1426 17.7954) scale(33.0764 50.201)">
<stop stop-color="white"/>
<stop offset="1" stop-color="#B8B8B8"/>
</radialGradient>
</defs>
</svg>
