<svg width="20" height="20" viewBox="0 0 20 20" fill="none" xmlns="http://www.w3.org/2000/svg">
<path opacity="0.8" d="M20 17.5143C20 18.1736 18.9464 18.8059 17.0711 19.2721C15.1957 19.7383 12.6522 20.0002 10 20.0002C7.34784 20.0002 4.8043 19.7383 2.92893 19.2721C1.05357 18.8059 0 18.1736 0 17.5143C0 16.855 1.05357 16.2226 2.92893 15.7564C4.8043 15.2902 7.34784 15.0283 10 15.0283C12.6522 15.0283 15.1957 15.2902 17.0711 15.7564C18.9464 16.2226 20 16.855 20 17.5143Z" fill="url(#paint0_radial)"/>
<path d="M9.61141 0.00230525C9.53696 0.014131 9.46675 0.0457764 9.40769 0.0941357C9.34863 0.142495 9.30274 0.205906 9.27452 0.278146L6.84612 6.11412L0.725922 6.69483C0.642267 6.70451 0.563131 6.73911 0.498134 6.79443C0.433138 6.84976 0.38508 6.92341 0.359803 7.00646C0.334526 7.0895 0.333118 7.17835 0.355751 7.2622C0.378383 7.34606 0.424082 7.4213 0.48729 7.4788L5.09147 11.6745L3.74391 17.8737C3.72311 17.96 3.72753 18.0507 3.75661 18.1344C3.78568 18.218 3.8381 18.2909 3.90723 18.3438C3.97636 18.3966 4.05909 18.4271 4.14496 18.4312C4.23083 18.4354 4.31598 18.4132 4.38962 18.3673L9.66759 15.1153L14.9456 18.3528C15.0192 18.3987 15.1043 18.4209 15.1902 18.4168C15.2761 18.4126 15.3588 18.3821 15.4279 18.3293C15.4971 18.2764 15.5495 18.2035 15.5786 18.1199C15.6076 18.0362 15.6121 17.9455 15.5913 17.8592L14.2437 11.6748L18.8479 7.47917C18.9111 7.42168 18.9568 7.34643 18.9794 7.26257C19.0021 7.17872 19.0006 7.08987 18.9754 7.00683C18.9501 6.92379 18.902 6.85013 18.837 6.7948C18.772 6.73948 18.6929 6.70488 18.6092 6.6952L12.4891 6.11449L10.0606 0.278517C10.0248 0.188379 9.96164 0.112728 9.88062 0.0629734C9.79959 0.0132184 9.70513 -0.00794404 9.61146 0.00267697L9.61141 0.00230525Z" fill="#9C7F00"/>
<path d="M4.16948 17.9721L5.57378 11.515L0.764313 7.14902L7.13605 6.53495L9.66463 0.455078L12.1983 6.53263L18.5705 7.14099L13.7646 11.5112L15.1743 17.9669L9.67038 14.5903L4.16961 17.9719L4.16948 17.9721Z" fill="#EDD400"/>
<path d="M9.66755 0.97519L7.32333 6.62254C7.30743 6.65537 7.28353 6.68335 7.25399 6.70372C7.22446 6.72409 7.19029 6.73614 7.15488 6.73869L1.25928 7.30491L5.70903 11.3554C5.73483 11.3812 5.7536 11.4136 5.76345 11.4493C5.77331 11.485 5.77391 11.5227 5.76518 11.5587L4.45975 17.5401L9.56927 14.4042C9.59938 14.3871 9.63318 14.3781 9.66753 14.3781C9.70188 14.3781 9.73568 14.3871 9.76579 14.4042L14.8753 17.5256L13.5699 11.5586C13.5612 11.5226 13.5617 11.4849 13.5716 11.4492C13.5815 11.4135 13.6002 11.3811 13.626 11.3553L18.0758 7.30482L12.1802 6.73859C12.1448 6.73604 12.1106 6.72399 12.0811 6.70363C12.0515 6.68326 12.0276 6.65528 12.0117 6.62245L9.66751 0.975098L9.66755 0.97519Z" stroke="url(#paint1_linear)"/>
<path opacity="0.6" d="M9.66757 0.452172L7.14088 6.53529L0.767792 7.14505L4.9368 10.9342C8.72975 9.52259 13.6906 8.41296 18.2579 7.42086L18.5668 7.14502L12.1937 6.53527L9.66698 0.452148L9.66757 0.452172Z" fill="url(#paint2_linear)"/>
<defs>
<radialGradient id="paint0_radial" cx="0" cy="0" r="1" gradientUnits="userSpaceOnUse" gradientTransform="translate(10.0005 17.5139) scale(10 2.48591)">
<stop stop-color="#2E3436" stop-opacity="0.594"/>
<stop offset="1" stop-color="#2E3436" stop-opacity="0"/>
</radialGradient>
<linearGradient id="paint1_linear" x1="-1.11298" y1="0.742811" x2="-1.11298" y2="17.7736" gradientUnits="userSpaceOnUse">
<stop stop-color="#EEEEEC" stop-opacity="0.8"/>
<stop offset="1" stop-color="#EEEEEC" stop-opacity="0"/>
</linearGradient>
<linearGradient id="paint2_linear" x1="5.26417" y1="-16.2289" x2="14.5624" y2="31.4291" gradientUnits="userSpaceOnUse">
<stop stop-color="white"/>
<stop offset="1" stop-color="white" stop-opacity="0"/>
</linearGradient>
</defs>
</svg>
