<?xml version="1.0" encoding="UTF-8"?>
<svg version="1.1" viewBox="0 0 300 500" xmlns="http://www.w3.org/2000/svg" xmlns:xlink="http://www.w3.org/1999/xlink">
 <defs>
  <filter id="o" color-interpolation-filters="sRGB">
   <feGaussianBlur stdDeviation="0.16117832"/>
  </filter>
  <filter id="n" color-interpolation-filters="sRGB">
   <feGaussianBlur stdDeviation="0.19694654"/>
  </filter>
  <filter id="m" color-interpolation-filters="sRGB">
   <feGaussianBlur stdDeviation="0.19933187"/>
  </filter>
  <radialGradient id="b" cx="308.41" cy="364.1" r="79.42" gradientTransform="matrix(.93799 0 0 .24684 19.125 274.22)" gradientUnits="userSpaceOnUse">
   <stop offset="0"/>
  </radialGradient>
  <linearGradient id="l" x1="393.81" x2="366.48" y1="257.79" y2="227.09" gradientTransform="translate(0,200)" gradientUnits="userSpaceOnUse">
   <stop stop-color="#e6e6e6" offset="0"/>
   <stop stop-color="#666" offset="1"/>
  </linearGradient>
  <linearGradient id="k" x1="437.14" x2="364.32" y1="238.4" y2="251.7" gradientTransform="translate(0,200)" gradientUnits="userSpaceOnUse">
   <stop stop-color="#fff" offset="0"/>
  </linearGradient>
  <linearGradient id="j" x1="383.53" x2="418.5" y1="188.56" y2="186.99" gradientTransform="translate(0,200)" gradientUnits="userSpaceOnUse">
   <stop stop-color="#fff" stop-opacity=".51196" offset=".5"/>
  </linearGradient>
  <linearGradient id="i" x1="410" x2="415.65" y1="123.42" y2="146.8" gradientTransform="translate(0,200)" gradientUnits="userSpaceOnUse">
   <stop stop-color="#ccc" offset="0"/>
   <stop stop-color="#fff" offset="1"/>
  </linearGradient>
  <linearGradient id="h" x1="-22.476" x2="-17.907" y1="146.28" y2="65.572" gradientUnits="userSpaceOnUse">
   <stop stop-color="#fff" offset="0"/>
   <stop stop-color="#fff" offset="1"/>
  </linearGradient>
  <linearGradient id="g" x1="-20.587" x2="-17.677" y1="147.14" y2="73.131" gradientUnits="userSpaceOnUse">
   <stop stop-color="#d0d0d0" offset="0"/>
   <stop stop-color="#ccdbd4" offset="1"/>
  </linearGradient>
  <radialGradient id="a" cx="428.74" cy="-.11501" r="32.311" gradientTransform="matrix(2.5276 1.0206 -.13885 1.9334 -671.45 -142.1)" gradientUnits="userSpaceOnUse">
   <stop stop-color="#e6e6e6" offset="0"/>
  </radialGradient>
  <linearGradient id="f" x1="353.61" x2="456.76" y1="86.721" y2="86.721" gradientTransform="translate(0,200)" gradientUnits="userSpaceOnUse">
   <stop stop-color="#6d6d6d" offset="0"/>
   <stop stop-color="#b7b7b7" offset=".5"/>
   <stop stop-color="#797979" offset="1"/>
  </linearGradient>
  <linearGradient id="e" x1="405.48" x2="406.59" y1="122.57" y2="84.37" gradientTransform="translate(0,200)" gradientUnits="userSpaceOnUse">
   <stop stop-color="#999" offset="0"/>
  </linearGradient>
  <linearGradient id="d" x1="399.48" x2="399.04" y1="118.97" y2="80.971" gradientTransform="translate(0,199)" gradientUnits="userSpaceOnUse">
   <stop stop-color="#b3b3b3" offset="0"/>
  </linearGradient>
  <linearGradient id="c" x1="428.95" x2="462.81" y1="-51.545" y2="68.996" gradientTransform="matrix(.79784 0 0 .79784 46.847 267.19)" gradientUnits="userSpaceOnUse">
   <stop stop-color="#f9f9f9" offset="0"/>
   <stop stop-color="#ccc" offset="1"/>
  </linearGradient>
 </defs>
 <g transform="matrix(1.4497 0 0 1.4497 -438.33 -239.34)">
  <path transform="matrix(.60914 0 0 1.1852 219.09 5.0157)" d="m387.83 364.1c0 12.691-35.558 22.979-79.42 22.979-43.863 0-79.42-10.288-79.42-22.979 0-12.691 35.558-22.979 79.42-22.979 43.863 0 79.42 10.288 79.42 22.979z" fill="url(#b)"/>
  <path d="m370.76 426.38c-0.22389 1.0993-0.33604 2.2116-0.33604 3.3521 0 13.621 17.469 24.669 37.821 24.669 20.352 0 36.843-11.048 36.843-24.669 0-1.1404-0.11216-2.2528-0.33605-3.3521-13.029 15.622-20.258 19.858-35.95 20.361-15.464 0.49643-35.603-8.3229-38.042-20.361z" fill="url(#l)"/>
  <path d="m442.41 432.31c-8.8814 11.003-22.889 18.092-37.25 16.281-11.459-0.66982-23.253-4.4881-31.312-12.938 6.574 13.059 23.018 17.023 36.562 16.688 13.135-0.33535 29.562-6.5023 32.531-20.656l-0.53125 0.625z" fill="url(#k)"/>
  <path d="m370.9 432.27-23.383-116.91 114.09-12.498-16.529 123.77s-13.647 23.315-40.718 21.77c-25.301-1.4437-33.461-16.126-33.461-16.126z" fill="#d40000"/>
  <path transform="translate(0,200)" d="m458.84 105.53-108.53 11.875 22.812 113.94c0.17778 0.31405 1.8422 3.1574 6.4375 6.5625 4.8557 3.598 12.698 7.4284 24.906 8.125 25.02 1.4277 37.676-19.187 38.312-20.25l16.062-120.25z" fill="#f00" opacity=".5"/>
  <path d="m422.5 329.88-41.938 4.0312 11.375 110.03c3.5513 1.05 7.6956 1.8178 12.531 2.0938 5.0838 0.2901 9.6529-0.35015 13.719-1.5312l4.3125-114.62z" fill="url(#j)" opacity=".76589"/>
  <path d="m461.59 302.88-114.09 12.469l1.9688 9.875c10.682 8.3725 24.242 16.194 57.816 14.984 25.117-0.90481 42.259-9.5866 51.829-19.48z" fill="url(#i)"/>
  <path transform="matrix(.62691 -.04069 .053989 .88798 412.78 200.19)" d="m78.109 111c0 21.254-45.309 38.484-101.2 38.484-55.891 0-101.2-17.23-101.2-38.484 0-21.254 45.309-38.484 101.2-38.484 55.891 0 101.2 17.23 101.2 38.484z" fill="url(#h)"/>
  <path d="m409.59 267.56c28.664 0.48771 51.339 12.13 52.312 27.875 1.0747 17.373-24.653 33.157-57.469 35.25-2.051 0.13084-4.0896 0.19872-6.0938 0.21875 2.6482 0.0212 5.3591-0.0443 8.0938-0.21875 32.816-2.0935 58.543-17.877 57.469-35.25-0.99657-16.11-24.706-27.91-54.312-27.875z" fill="#808080" filter="url(#o)"/>
  <path transform="matrix(.58714 -.037456 .050564 .81741 411.42 207.64)" d="m78.109 111c0 21.254-45.309 38.484-101.2 38.484-55.891 0-101.2-17.23-101.2-38.484 0-21.254 45.309-38.484 101.2-38.484 55.891 0 101.2 17.23 101.2 38.484z" fill="url(#g)" filter="url(#n)"/>
  <path d="m446.82 277.22c7.5738 3.8324 15.919 23.062-2.297 36.33s-48.625 14.664-63.671 11.718c-8.3301-1.6307 5.0443-22.659 23.261-35.927 18.216-13.268 32.902-17.082 42.707-12.121z" fill="url(#a)"/>
  <path transform="matrix(.41227 0 0 .53003 413.71 238.56)" d="m78.109 111c0 21.254-45.309 38.484-101.2 38.484-55.891 0-101.2-17.23-101.2-38.484 0-21.254 45.309-38.484 101.2-38.484 55.891 0 101.2 17.23 101.2 38.484z" fill="#fff" fill-opacity=".63571" filter="url(#m)"/>
  <path transform="matrix(.40101 0 0 .54485 413.45 234.48)" d="m78.109 111c0 21.254-45.309 38.484-101.2 38.484-55.891 0-101.2-17.23-101.2-38.484 0-21.254 45.309-38.484 101.2-38.484 55.891 0 101.2 17.23 101.2 38.484z" fill="#ccc"/>
  <path d="m404.2 273.99c-22.413 0-40.594 9.3884-40.594 20.969 0 1.547 0.3535 3.0484 0.96875 4.5 3.9904-9.4146 20.206-16.469 39.625-16.469s35.635 7.0541 39.625 16.469c0.61525-1.4516 0.9375-2.953 0.9375-4.5 0-11.58-18.15-20.969-40.562-20.969z" fill="url(#f)"/>
  <path d="m432.59 286.78-55.594 1.9688l-1.6875 20.938c7.3582 3.8521 17.572 6.25 28.875 6.25 12.508 0 23.681-2.934 31.125-7.5312l-2.7188-21.625z" fill="url(#e)"/>
  <path transform="matrix(.27988 0 0 .38559 411.22 247.17)" d="m78.109 111c0 21.254-45.309 38.484-101.2 38.484-55.891 0-101.2-17.23-101.2-38.484 0-21.254 45.309-38.484 101.2-38.484 55.891 0 101.2 17.23 101.2 38.484z" fill="#f2f2f2"/>
  <path d="m404.76 282.14c-13.005 0-23.955 4.586-27.281 10.844 3.3414 6.2454 14.293 10.812 27.281 10.812s23.94-4.5671 27.281-10.812c-3.326-6.2578-14.277-10.844-27.281-10.844z" fill="url(#d)"/>
  <path d="m404.75 275.12c-15.643 0-28.312 6.6483-28.312 14.844 0 0.16406 0.0212 0.33723 0.0312 0.5 0.51371-7.959 12.965-14.344 28.281-14.344s27.799 6.3847 28.312 14.344c0.0101-0.16277 0.0312-0.33594 0.0312-0.5 0-8.1954-12.701-14.844-28.344-14.844z" fill="#fff"/>
  <path d="m397.39 291.76h11.403l1.9955-6.1737h-10.833z" fill="#4d4d4d"/>
  <path d="m352.24 207.67s-1.0056 2.5436-1.1469 3.8895c-0.154 1.4662 0.34905 4.4131 0.34905 4.4131s0.35296 0.0714 0.37399 0.0748c2.2e-4 1e-3 -1.4e-4 0.0241 0 0.0249 0.13828 0.0125 0.33079 0.0368 0.47372 0.0499 1.8942 0.30946 19.462 3.2034 28.523 6.1085-0.10093-0.0269-0.19658-0.048-0.29919-0.0748 0.81735 0.24939 1.5701 0.50054 2.2439 0.74798 0.1944 0.0744 0.39456 0.15051 0.57345 0.22439 0.12344 0.0487 0.25727 0.10116 0.37399 0.1496 0.15155 0.0667 0.3113 0.13327 0.44879 0.19946 1.001 0.48184 1.6115 0.96019 1.7204 1.3962 5.4871 21.984 15.573 63.707 16.356 66.944l0.34905 0.0249 0.89758 0.0249 1.122 0.0499 1.9946 0.0748 2.0445 0.0748 0.2992 0.0249 0.94743-2.9171 0.0499-0.1496c-2.6668-11.026-11.659-48.389-16.805-68.989-0.0178-0.0711-0.0446-0.15291-0.0748-0.2244-7e-3 -0.014-0.0177-0.0357-0.0249-0.0499-0.21178-0.41616-0.68948-0.84827-1.3713-1.2716-6.5315-5.193-39.419-10.821-39.419-10.821z"/>
  <path d="m352.24 207.67s-1.0056 2.5436-1.1469 3.8895c-0.154 1.4662 0.34905 4.4131 0.34905 4.4131s33.561 5.4126 34.432 8.9009c5.4871 21.984 15.573 63.707 16.356 66.944l6.7069 0.27426 0.94743-2.9171c-1.0189-4.1477-11.381-46.28-17.129-69.288-1.3798-5.5235-40.515-12.217-40.515-12.217z" fill="url(#c)"/>
  <path d="m352.22 208.94c-0.28381 0.8051-0.57784 1.7469-0.69811 2.568 5.341 0.74315 39.038 5.5546 39.842 8.7763 5.3722 21.523 15.998 66.377 17.278 71.781l0.2992 0.0249 0.9973-3.0667c-2.6668-11.026-11.659-48.389-16.805-68.989-0.0178-0.0711-0.0446-0.1529-0.0748-0.22439-7e-3 -0.014-0.0177-0.0357-0.0249-0.0499-2.0943-4.1153-29.219-8.7323-40.815-10.821zm-0.67318 4.6624c0.10103 1.2462 0.26493 2.4133 0.27426 2.4683 10.643 0.9633 35.315 3.4784 36.003 6.2332 5.1712 20.718 14.878 61.586 16.78 69.612l1.9946 0.0748c-2.5138-10.385-11.757-49.03-16.979-69.936-0.96248-3.8529-25.103-6.5952-38.072-8.4522zm28.972 8.5519c3.2694 0.99756 5.5168 1.9952 5.7345 2.8672 5.4735 21.929 15.502 63.391 16.331 66.819l0.89758 0.0249c-3.1254-12.944-11.22-46.734-16.131-66.396-0.30367-1.2156-2.9836-2.3124-6.8315-3.316z" fill="#ff2a2a"/>
 </g>
</svg>
